<?xml version="1.0" encoding="utf-8"?>
<!-- Generator: Adobe Illustrator 22.0.0, SVG Export Plug-In . SVG Version: 6.00 Build 0)  -->
<svg version="1.1" id="Layer_1" xmlns="http://www.w3.org/2000/svg" xmlns:xlink="http://www.w3.org/1999/xlink" x="0px" y="0px"
	 viewBox="0 0 580.6 505.1" style="enable-background:new 0 0 580.6 505.1;" xml:space="preserve">
<style type="text/css">
	.st0{display:none;fill:#1054C1;stroke:#000000;stroke-miterlimit:10;}
	.st1{opacity:0.3;}
	.st2{fill:url(#SVGID_1_);}
	.st3{fill:#FFFFFF;}
	.st4{fill:url(#SVGID_2_);}
	.st5{fill:url(#SVGID_3_);}
	.st6{fill:#BCBEFF;}
	.st7{opacity:0.48;fill:url(#SVGID_4_);enable-background:new    ;}
	.st8{opacity:0.48;fill:url(#SVGID_5_);enable-background:new    ;}
	.st9{opacity:0.48;fill:url(#SVGID_6_);enable-background:new    ;}
	.st10{fill:url(#SVGID_7_);}
	.st11{fill:url(#SVGID_8_);}
	.st12{opacity:0.5;fill:url(#SVGID_9_);enable-background:new    ;}
	.st13{opacity:0.48;fill:url(#SVGID_10_);enable-background:new    ;}
	.st14{fill:#2692C7;}
	.st15{fill:url(#SVGID_11_);}
	.st16{opacity:0.3;fill:#0F054C;enable-background:new    ;}
	.st17{fill:url(#SVGID_12_);}
	.st18{fill:url(#SVGID_13_);}
	.st19{fill:url(#SVGID_14_);}
	.st20{fill:url(#SVGID_16_);}
	.st21{clip-path:url(#SVGID_18_);}
	.st22{fill:url(#SVGID_19_);}
	.st23{fill:url(#SVGID_20_);}
	.st24{fill:#0F054C;}
	.st25{fill:url(#SVGID_21_);}
	.st26{fill:url(#SVGID_22_);}
	.st27{opacity:0.4;fill:#42E8E0;enable-background:new    ;}
	.st28{fill:url(#SVGID_23_);}
	.st29{fill:url(#SVGID_24_);}
	.st30{opacity:0.3;fill:#0063A9;enable-background:new    ;}
	.st31{fill:#42E8E0;}
	.st32{fill:url(#SVGID_25_);}
	.st33{fill:url(#SVGID_26_);}
	.st34{fill:#16365E;}
	.st35{opacity:0.51;}
	.st36{fill:url(#SVGID_27_);}
	.st37{fill:url(#SVGID_28_);}
	.st38{opacity:0.15;}
	.st39{clip-path:url(#SVGID_30_);}
	.st40{fill:url(#SVGID_31_);}
	.st41{fill:url(#SVGID_32_);}
	.st42{opacity:0.5;}
	.st43{fill:#24126A;}
	.st44{opacity:0.8;}
	.st45{fill:#06063E;}
	.st46{opacity:0.4;fill:#2692C7;enable-background:new    ;}
	.st47{fill:url(#SVGID_33_);}
	.st48{fill:url(#SVGID_34_);}
	.st49{fill:url(#SVGID_35_);}
	.st50{fill:url(#SVGID_36_);}
	.st51{opacity:0.51;fill:url(#SVGID_37_);}
	.st52{fill:url(#SVGID_38_);}
	.st53{fill:url(#SVGID_39_);}
	.st54{fill:url(#SVGID_40_);}
	.st55{fill:url(#SVGID_41_);}
	.st56{fill:url(#SVGID_42_);}
	.st57{opacity:0.3;fill:#2692C7;enable-background:new    ;}
	.st58{clip-path:url(#SVGID_44_);}
	.st59{fill:url(#SVGID_45_);}
	.st60{fill:url(#SVGID_46_);}
	.st61{opacity:0.5;fill:url(#SVGID_47_);enable-background:new    ;}
	.st62{opacity:0.5;fill:url(#SVGID_48_);enable-background:new    ;}
	.st63{fill:url(#SVGID_49_);}
	.st64{fill:url(#SVGID_50_);}
	.st65{fill:url(#SVGID_51_);}
	.st66{opacity:0.48;fill:url(#SVGID_52_);enable-background:new    ;}
	.st67{opacity:0.48;fill:url(#SVGID_53_);enable-background:new    ;}
	.st68{opacity:0.48;fill:url(#SVGID_54_);enable-background:new    ;}
	.st69{fill:url(#SVGID_55_);}
	.st70{fill:url(#SVGID_56_);}
	.st71{opacity:0.5;fill:url(#SVGID_57_);enable-background:new    ;}
	.st72{opacity:0.48;fill:url(#SVGID_58_);enable-background:new    ;}
	.st73{opacity:0.5;fill:#2692C7;enable-background:new    ;}
</style>
<rect x="-164.2" y="224.7" class="st0" width="770" height="395"/>
<g>
	<g class="st1">
		<g>
			
				<linearGradient id="SVGID_1_" gradientUnits="userSpaceOnUse" x1="-8104.2568" y1="7216.6514" x2="-8091.7842" y2="7216.6514" gradientTransform="matrix(-1.900000e-03 -1 0.9989 -0.5792 -6830.1992 -3700.761)">
				<stop  offset="0" style="stop-color:#5761D7"/>
				<stop  offset="0.1645" style="stop-color:#5E67DA"/>
				<stop  offset="0.4051" style="stop-color:#727AE2"/>
				<stop  offset="0.6924" style="stop-color:#9297EE"/>
				<stop  offset="1" style="stop-color:#BCBEFF"/>
			</linearGradient>
			<path class="st2" d="M393.9,211.1c3-1.7,5.4-0.3,5.4,3.1c0,3.4-2.4,7.6-5.4,9.4c-3,1.7-5.4,0.3-5.4-3.1
				C388.5,217.1,390.9,212.9,393.9,211.1z"/>
			<path class="st3" d="M394.2,211.3c-3,1.7-5.4,5.9-5.4,9.4c0,1.6,0.5,2.8,1.4,3.4c-1.1-0.5-1.8-1.8-1.8-3.6c0-3.4,2.4-7.6,5.4-9.4
				c1.6-0.9,3-0.9,4-0.3C396.9,210.4,395.6,210.5,394.2,211.3z"/>
			
				<linearGradient id="SVGID_2_" gradientUnits="userSpaceOnUse" x1="-8089.4233" y1="7203.7656" x2="-8076.9507" y2="7203.7656" gradientTransform="matrix(-1.900000e-03 -1 0.9989 -0.5792 -6830.1992 -3700.761)">
				<stop  offset="0" style="stop-color:#5761D7"/>
				<stop  offset="0.1645" style="stop-color:#5E67DA"/>
				<stop  offset="0.4051" style="stop-color:#727AE2"/>
				<stop  offset="0.6924" style="stop-color:#9297EE"/>
				<stop  offset="1" style="stop-color:#BCBEFF"/>
			</linearGradient>
			<path class="st4" d="M381,203.7c3-1.7,5.4-0.3,5.4,3.1c0,3.4-2.4,7.6-5.4,9.4c-3,1.7-5.4,0.3-5.4-3.1
				C375.6,209.7,378.1,205.5,381,203.7z"/>
			
				<linearGradient id="SVGID_3_" gradientUnits="userSpaceOnUse" x1="-8074.3296" y1="7190.6797" x2="-8061.8569" y2="7190.6797" gradientTransform="matrix(-1.900000e-03 -1 0.9989 -0.5792 -6830.1992 -3700.761)">
				<stop  offset="0" style="stop-color:#5761D7"/>
				<stop  offset="0.1645" style="stop-color:#5E67DA"/>
				<stop  offset="0.4051" style="stop-color:#727AE2"/>
				<stop  offset="0.6924" style="stop-color:#9297EE"/>
				<stop  offset="1" style="stop-color:#BCBEFF"/>
			</linearGradient>
			<path class="st5" d="M367.9,196.2c3-1.7,5.4-0.3,5.4,3.1c0,3.4-2.4,7.6-5.4,9.4c-3,1.7-5.4,0.3-5.4-3.1
				C362.6,202.1,365,197.9,367.9,196.2z"/>
			<path class="st6" d="M390.1,224l6.7,3.8c-1-0.6-1.6-1.8-1.6-3.5c0-3.4,2.4-7.6,5.4-9.4c1.4-0.8,2.8-0.9,3.7-0.4l28.3,16.3
				L425,244l-83.4-47.9c-3.7-2.1-4.9-6.8-2.8-10.4c2.1-3.7,6.8-4.9,10.4-2.8l22.6,13c-1-0.6-2.4-0.6-3.9,0.3c-3,1.7-5.4,5.9-5.4,9.4
				c0,1.7,0.6,2.9,1.6,3.5l0,0l0,0l0,0l6.7,3.8c-1-0.6-1.6-1.8-1.6-3.5c0-3.4,2.4-7.6,5.4-9.4c1.4-0.8,2.8-0.9,3.7-0.4l6.6,3.8
				c-1-0.6-2.4-0.6-3.9,0.3c-3,1.7-5.4,5.9-5.4,9.4c0,1.7,0.6,2.9,1.6,3.5l0,0l0,0l0,0l6.7,3.8c-1-0.6-1.6-1.8-1.6-3.5
				c0-3.4,2.4-7.6,5.4-9.4c1.4-0.8,2.8-0.9,3.7-0.4l6.3,3.6c-1-0.6-2.4-0.6-3.9,0.3c-3,1.7-5.4,5.9-5.4,9.4
				C388.5,222.2,389.1,223.4,390.1,224L390.1,224L390.1,224L390.1,224z"/>
			<path class="st3" d="M381.4,203.9c-3,1.7-5.4,5.9-5.4,9.4c0,1.6,0.5,2.8,1.4,3.4c-1.1-0.5-1.8-1.8-1.8-3.6c0-3.4,2.4-7.6,5.4-9.4
				c1.6-0.9,3-0.9,4-0.3C384,203,382.8,203.1,381.4,203.9z"/>
			<path class="st3" d="M368.3,196.4c-3,1.7-5.4,5.9-5.4,9.4c0,1.6,0.5,2.8,1.4,3.4c-1.1-0.5-1.8-1.8-1.8-3.6c0-3.4,2.4-7.6,5.4-9.4
				c1.6-0.9,3-0.9,4-0.3C371,195.5,369.7,195.6,368.3,196.4z"/>
			
				<linearGradient id="SVGID_4_" gradientUnits="userSpaceOnUse" x1="-3063.2102" y1="8769.8271" x2="-3047.9412" y2="8769.8271" gradientTransform="matrix(0.4984 -0.867 0.867 0.4984 -5685.1616 -6801.8447)">
				<stop  offset="0" style="stop-color:#42E8E0"/>
				<stop  offset="0.1507" style="stop-color:#43E3E0"/>
				<stop  offset="0.3285" style="stop-color:#45D5DF"/>
				<stop  offset="0.5199" style="stop-color:#49BDDD"/>
				<stop  offset="0.7209" style="stop-color:#4E9CDB"/>
				<stop  offset="0.9274" style="stop-color:#5472D8"/>
				<stop  offset="1" style="stop-color:#5761D7"/>
			</linearGradient>
			<path class="st7" d="M400.6,215c-3,1.7-5.4,5.9-5.4,9.4c0,1.7,0.6,2.9,1.6,3.5l-6.7-3.8l0,0l0,0l0,0c-1-0.6-1.6-1.8-1.6-3.5
				c0-3.4,2.4-7.6,5.4-9.4c1.5-0.9,2.9-0.9,3.9-0.3l6.5,3.7C403.3,214,402,214.1,400.6,215z"/>
			
				<linearGradient id="SVGID_5_" gradientUnits="userSpaceOnUse" x1="-3063.2102" y1="8754.9561" x2="-3047.9409" y2="8754.9561" gradientTransform="matrix(0.4984 -0.867 0.867 0.4984 -5685.1616 -6801.8447)">
				<stop  offset="0" style="stop-color:#42E8E0"/>
				<stop  offset="0.1507" style="stop-color:#43E3E0"/>
				<stop  offset="0.3285" style="stop-color:#45D5DF"/>
				<stop  offset="0.5199" style="stop-color:#49BDDD"/>
				<stop  offset="0.7209" style="stop-color:#4E9CDB"/>
				<stop  offset="0.9274" style="stop-color:#5472D8"/>
				<stop  offset="1" style="stop-color:#5761D7"/>
			</linearGradient>
			<path class="st8" d="M387.7,207.6c-3,1.7-5.4,5.9-5.4,9.4c0,1.7,0.6,2.9,1.6,3.5l-6.7-3.8l0,0l0,0l0,0c-1-0.6-1.6-1.8-1.6-3.5
				c0-3.4,2.4-7.6,5.4-9.4c1.5-0.9,2.9-0.9,3.9-0.3l6.5,3.7C390.5,206.6,389.2,206.7,387.7,207.6z"/>
			
				<linearGradient id="SVGID_6_" gradientUnits="userSpaceOnUse" x1="-3063.2097" y1="8739.8623" x2="-3047.9409" y2="8739.8623" gradientTransform="matrix(0.4984 -0.867 0.867 0.4984 -5685.1616 -6801.8447)">
				<stop  offset="0" style="stop-color:#42E8E0"/>
				<stop  offset="0.1507" style="stop-color:#43E3E0"/>
				<stop  offset="0.3285" style="stop-color:#45D5DF"/>
				<stop  offset="0.5199" style="stop-color:#49BDDD"/>
				<stop  offset="0.7209" style="stop-color:#4E9CDB"/>
				<stop  offset="0.9274" style="stop-color:#5472D8"/>
				<stop  offset="1" style="stop-color:#5761D7"/>
			</linearGradient>
			<path class="st9" d="M374.6,200.1c-3,1.7-5.4,5.9-5.4,9.4c0,1.7,0.6,2.9,1.6,3.5l-6.7-3.8l0,0l0,0l0,0c-1-0.6-1.6-1.8-1.6-3.5
				c0-3.4,2.4-7.6,5.4-9.4c1.5-0.9,2.9-0.9,3.9-0.3l6.5,3.7C377.4,199.1,376.1,199.2,374.6,200.1z"/>
		</g>
		<g>
			
				<linearGradient id="SVGID_7_" gradientUnits="userSpaceOnUse" x1="-3110.4216" y1="8835.0781" x2="-3011.7451" y2="8892.2822" gradientTransform="matrix(0.4984 -0.867 0.867 0.4984 -5685.1616 -6801.8447)">
				<stop  offset="0" style="stop-color:#BCBEFF"/>
				<stop  offset="0.3076" style="stop-color:#9297EE"/>
				<stop  offset="0.5949" style="stop-color:#727AE2"/>
				<stop  offset="0.8355" style="stop-color:#5E67DA"/>
				<stop  offset="1" style="stop-color:#5761D7"/>
			</linearGradient>
			<path class="st10" d="M425.3,267.3c0,0.4,0,0.8,0,1.2l16.5,13.8l26.7,9.9l18.8-4.2l18-5.1l18.3-14.1l0.5-0.4
				c0.1-1.1,0-2.3-0.2-3.4c3.2-4.3,6.5-8.6,9.7-12.9c1.5,1.9,2.7,3.8,3.6,5.8l2.1-1.7v11c0,0.1,0,0.3,0,0.4v0.4l0,0
				c-0.3,9.3-6.5,18.6-18.8,25.8c-25.2,14.6-66.1,14.7-91.4,0.2c-12.5-7.2-18.8-16.6-19-26.1l0,0v-0.1c0-0.1,0-0.2,0-0.3v-11.7
				l2.3,1.9c0.5-1.1,1.2-2.3,1.9-3.4C417.2,259.2,420.1,265.2,425.3,267.3z"/>
			
				<linearGradient id="SVGID_8_" gradientUnits="userSpaceOnUse" x1="-3002.2639" y1="8885.8574" x2="-3091.1045" y2="8820.8115" gradientTransform="matrix(0.4984 -0.867 0.867 0.4984 -5685.1616 -6801.8447)">
				<stop  offset="0" style="stop-color:#5761D7"/>
				<stop  offset="0.1645" style="stop-color:#5E67DA"/>
				<stop  offset="0.4051" style="stop-color:#727AE2"/>
				<stop  offset="0.6924" style="stop-color:#9297EE"/>
				<stop  offset="1" style="stop-color:#BCBEFF"/>
			</linearGradient>
			<path class="st11" d="M519.3,240.5c0.3,0.2,0.7,0.4,1,0.6c5.7,3.3,10.1,7.1,13.2,11.1c-3.2,4.3-6.5,8.6-9.7,12.9
				c-1-6.5-5.7-12.8-14.3-17.7c-19.3-11.1-50.6-11-69.8,0.1c-9.5,5.5-14.3,12.7-14.4,19.9c-5.2-2.1-8.1-8.1-11-13
				c2.3-3.5,5.6-6.9,9.9-10l-2.2,0.5c0,0,15.2-13.2,15.7-13.3c0.6-0.1,30.9-8.2,30.9-8.2l34.2,3L519.3,240.5z"/>
			
				<linearGradient id="SVGID_9_" gradientUnits="userSpaceOnUse" x1="-3087.4443" y1="8858.4893" x2="-3017.6855" y2="8858.4893" gradientTransform="matrix(0.4984 -0.867 0.867 0.4984 -5685.1616 -6801.8447)">
				<stop  offset="0" style="stop-color:#42E8E0"/>
				<stop  offset="0.1507" style="stop-color:#43E3E0"/>
				<stop  offset="0.3285" style="stop-color:#45D5DF"/>
				<stop  offset="0.5199" style="stop-color:#49BDDD"/>
				<stop  offset="0.7209" style="stop-color:#4E9CDB"/>
				<stop  offset="0.9274" style="stop-color:#5472D8"/>
				<stop  offset="1" style="stop-color:#5761D7"/>
			</linearGradient>
			<path class="st12" d="M508.6,239.6c19.3,11.1,19.3,29.1,0.1,40.3c-19.3,11.2-50.5,11.2-69.8,0.1s-19.3-29.1-0.1-40.3
				C458.1,228.5,489.3,228.5,508.6,239.6z"/>
			
				<linearGradient id="SVGID_10_" gradientUnits="userSpaceOnUse" x1="-3090.4812" y1="8860.1836" x2="-3020.7222" y2="8860.1836" gradientTransform="matrix(0.4984 -0.867 0.867 0.4984 -5685.1616 -6801.8447)">
				<stop  offset="0" style="stop-color:#42E8E0"/>
				<stop  offset="0.1507" style="stop-color:#43E3E0"/>
				<stop  offset="0.3285" style="stop-color:#45D5DF"/>
				<stop  offset="0.5199" style="stop-color:#49BDDD"/>
				<stop  offset="0.7209" style="stop-color:#4E9CDB"/>
				<stop  offset="0.9274" style="stop-color:#5472D8"/>
				<stop  offset="1" style="stop-color:#5761D7"/>
			</linearGradient>
			<path class="st13" d="M508.6,243c19.3,11.1,19.3,29.1,0.1,40.3c-19.3,11.2-50.5,11.2-69.8,0.1s-19.3-29.1-0.1-40.3
				C458,232,489.3,231.9,508.6,243z"/>
			<path class="st6" d="M520.3,229.4c-25.3-14.5-66.2-14.4-91.4,0.2s-25.2,38.2,0.1,52.7c25.3,14.5,66.2,14.4,91.4-0.2
				C545.6,267.6,545.6,244,520.3,229.4z M509.5,235.7c19.3,11.1,19.3,29.1,0.1,40.3c-19.3,11.2-50.5,11.2-69.8,0.1
				c-19.3-11.1-19.3-29.1-0.1-40.3S490.2,224.6,509.5,235.7z"/>
			<path class="st6" d="M520.3,229.4c-25.3-14.5-66.2-14.4-91.4,0.2s-25.2,38.2,0.1,52.7c25.3,14.5,66.2,14.4,91.4-0.2
				C545.6,267.6,545.6,244,520.3,229.4z M509.5,235.7c19.3,11.1,19.3,29.1,0.1,40.3c-19.3,11.2-50.5,11.2-69.8,0.1
				c-19.3-11.1-19.3-29.1-0.1-40.3S490.2,224.6,509.5,235.7z"/>
			<g>
				<path class="st3" d="M428.7,281.4c25.3,14.5,66.2,14.4,91.4-0.2c15.5-9,21.4-21.4,17.8-33c4.3,11.9-1.5,24.7-17.5,34
					c-25.2,14.6-66.1,14.7-91.4,0.2c-9.7-5.6-15.7-12.5-17.9-19.8C413.6,269.5,419.4,276,428.7,281.4z"/>
				<path class="st3" d="M439.4,234.8c19.3-11.2,50.5-11.2,69.8-0.1c7.5,4.3,12,9.6,13.7,15.2c-1.9-5.2-6.4-10.2-13.4-14.2
					c-19.3-11.1-50.6-11-69.8,0.1c-11.8,6.8-16.3,16.3-13.7,25.1C422.7,251.8,427.2,241.9,439.4,234.8z"/>
			</g>
		</g>
	</g>
	<path class="st14" d="M313.7,453.7c-1.5,0-3-0.4-4.2-1.1L114.5,340c-1.2-0.7-1.9-1.7-1.9-2.6c0-0.8,0.5-1.6,1.4-2.1l116.3-67.2
		c1.9-1.1,5.3-1,7.5,0.3l195,112.6c1.2,0.7,1.9,1.7,1.9,2.6c0,0.8-0.5,1.6-1.4,2.1L317,452.9C316.1,453.5,314.9,453.7,313.7,453.7z
		 M114.8,339.5l195,112.6c2,1.2,5.1,1.3,6.9,0.3L433,385.2c0.7-0.4,1.1-0.9,1.1-1.5c0-0.7-0.6-1.5-1.6-2.1L237.5,269
		c-2-1.2-5.1-1.3-6.9-0.3l-116.3,67.2c-0.7,0.4-1.1,0.9-1.1,1.5C113.2,338.2,113.8,338.9,114.8,339.5L114.8,339.5z"/>
	<g class="st1">
		<g>
			
				<radialGradient id="SVGID_11_" cx="-4540.4951" cy="7315.71" r="96.1152" gradientTransform="matrix(0.5058 -0.8626 0.8626 0.5058 -3828.2493 -7248.1313)" gradientUnits="userSpaceOnUse">
				<stop  offset="0" style="stop-color:#E9E9FD"/>
				<stop  offset="0.3601" style="stop-color:#D3D2F9"/>
				<stop  offset="0.7062" style="stop-color:#C5C4F7"/>
				<stop  offset="1" style="stop-color:#C0BFF6"/>
			</radialGradient>
			<path class="st15" d="M189.1,276.8c13.1,7.7,23.7,26.2,23.6,41.5c-0.1,8.1-3.1,13.6-8,15.8l0,0l-42,23.9l-33.9-58.3l43.3-24.5
				c0.2-0.1,0.3-0.2,0.5-0.3l0.2-0.1l0,0C177,272.6,182.7,273,189.1,276.8z"/>
			<path class="st16" d="M189.1,276.8c7.8,4.6,14.6,12.9,18.9,22.2c-6.4,3.5-19.2,10.5-43.6,23.7c-6.1,3.3-11.7,6.6-16.7,9.7
				l-19-32.6l43.3-24.5c0.2-0.1,0.3-0.2,0.5-0.3l0.2-0.1l0,0C177,272.6,182.7,273,189.1,276.8z"/>
		</g>
		<g>
			
				<linearGradient id="SVGID_12_" gradientUnits="userSpaceOnUse" x1="-4580.1162" y1="7296.418" x2="-4532.9624" y2="7202.0327" gradientTransform="matrix(0.5058 -0.8626 0.8626 0.5058 -3828.2493 -7248.1313)">
				<stop  offset="0" style="stop-color:#BCBEFF"/>
				<stop  offset="0.1237" style="stop-color:#B4B6FC"/>
				<stop  offset="0.3207" style="stop-color:#9CA1F2"/>
				<stop  offset="0.5651" style="stop-color:#777EE4"/>
				<stop  offset="0.744" style="stop-color:#5761D7"/>
			</linearGradient>
			<path class="st17" d="M145.3,300.5c13.6,8,24.6,27.3,24.5,43.1c0,7.2-2.4,12.4-6.2,15.2l0,0l-0.1,0.1c0,0-0.1,0-0.1,0.1
				c-0.2,0.1-0.3,0.2-0.5,0.3c-24,15.9-35.4,36.5-49.1,61.9l-3.9,7.2l-64.6-115l7.8,0.4c28.5,1.5,48.6-3,74.5-15.2
				C132.1,296,138.4,296.4,145.3,300.5z"/>
			<path class="st16" d="M53.2,313.8c28.5,1.5,48.6-3,74.5-15.2c4.5-2.6,10.7-2.3,17.6,1.8c7.8,4.6,14.7,12.9,19.2,22.1
				c0,0-0.1,0-0.1,0.1c-40.1,21.7-55.8,40-55.8,40L73,353.4l-11.4-11.1l-16.3-28.9L53.2,313.8z"/>
			
				<linearGradient id="SVGID_13_" gradientUnits="userSpaceOnUse" x1="-4262.6333" y1="7919.4424" x2="-4192.3687" y2="7822.8843" gradientTransform="matrix(0.5294 -0.8484 0.8484 0.5294 -4370.2915 -7383.0312)">
				<stop  offset="0" style="stop-color:#BCBEFF"/>
				<stop  offset="0.2271" style="stop-color:#AAADF8"/>
				<stop  offset="0.6802" style="stop-color:#7C83E5"/>
				<stop  offset="1" style="stop-color:#5761D7"/>
			</linearGradient>
			<path class="st18" d="M71.5,319.7c26.1,15.3,47.2,52.3,47,82.6c-0.1,15.1-5.5,25.7-14.1,30.6l0,0l0,0c0,0,0,0-0.1,0l-7.9,4.4
				l1.9-2.1c-7.8,1.9-17.3,0.1-27.5-5.9c-26.1-15.3-47.2-52.3-47-82.6c0.1-11.9,3.4-21,9-26.7l-2.2,0.1l7.2-4.1c0,0,0.1,0,0.1-0.1
				l0.3-0.1l0,0C46.8,311.3,58.5,312.2,71.5,319.7z"/>
			<path class="st3" d="M65.8,322.9c26.1,15.3,47.2,52.3,47,82.6c-0.1,14.9-5.3,25.4-13.7,30.4l-1.2,0.7c-0.4,0.2-0.9,0.4-1.3,0.6
				l1.7-1.8c-7.8,1.9-17.3,0.1-27.5-5.9c-26.1-15.3-47.2-52.3-47-82.6c0.1-11.9,3.4-21,9-26.7l-2,0.1
				C39.5,314.4,52,314.8,65.8,322.9z"/>
			
				<linearGradient id="SVGID_14_" gradientUnits="userSpaceOnUse" x1="-4658.1362" y1="7215.5825" x2="-4563.1465" y2="7215.5825" gradientTransform="matrix(0.5058 -0.8626 0.8626 0.5058 -3828.2493 -7248.1313)">
				<stop  offset="0" style="stop-color:#E9E9FD"/>
				<stop  offset="0.3601" style="stop-color:#D3D2F9"/>
				<stop  offset="0.7062" style="stop-color:#C5C4F7"/>
				<stop  offset="1" style="stop-color:#C0BFF6"/>
			</linearGradient>
			<path class="st19" d="M64.2,323.8c-26.1-15.3-47.5-3.2-47.7,27.1c-0.2,30.3,20.8,67.3,47,82.6c26.1,15.3,47.5,3.2,47.7-27.1
				C111.4,376.1,90.4,339.1,64.2,323.8z"/>
			<g>
				<g>
					
						<radialGradient id="SVGID_16_" cx="87.1819" cy="93.873" r="108.4429" gradientTransform="matrix(1 0 0 -1 0 506.6141)" gradientUnits="userSpaceOnUse">
						<stop  offset="0" style="stop-color:#BCBEFF"/>
						<stop  offset="0.2271" style="stop-color:#AAADF8"/>
						<stop  offset="0.6802" style="stop-color:#7C83E5"/>
						<stop  offset="1" style="stop-color:#5761D7"/>
					</radialGradient>
					<path id="SVGID_15_" class="st20" d="M64.2,330.5c-22.9-13.4-41.7-2.8-41.8,23.8c-0.2,26.6,18.3,59,41.2,72.5
						c22.9,13.4,41.7,2.8,41.8-23.8C105.6,376.4,87.1,344,64.2,330.5z"/>
				</g>
				<g>
					<defs>
						<path id="SVGID_17_" d="M64.2,330.5c-22.9-13.4-41.7-2.8-41.8,23.8c-0.2,26.6,18.3,59,41.2,72.5c22.9,13.4,41.7,2.8,41.8-23.8
							C105.6,376.4,87.1,344,64.2,330.5z"/>
					</defs>
					<clipPath id="SVGID_18_">
						<use xlink:href="#SVGID_17_"  style="overflow:visible;"/>
					</clipPath>
					<g class="st21">
						
							<linearGradient id="SVGID_19_" gradientUnits="userSpaceOnUse" x1="-4243.3574" y1="7892.8979" x2="-4165.8838" y2="7892.8979" gradientTransform="matrix(0.5294 -0.8484 0.8484 0.5294 -4370.2915 -7383.0312)">
							<stop  offset="0" style="stop-color:#E9E9FD"/>
							<stop  offset="0.3601" style="stop-color:#D3D2F9"/>
							<stop  offset="0.7062" style="stop-color:#C5C4F7"/>
							<stop  offset="1" style="stop-color:#C0BFF6"/>
						</linearGradient>
						<polygon class="st22" points="69.3,389.1 140.2,360.6 110.2,323.3 57.5,368.8 						"/>
						
							<radialGradient id="SVGID_20_" cx="-4259.584" cy="7886.6167" r="61.9145" gradientTransform="matrix(0.5294 -0.8484 0.8484 0.5294 -4370.2915 -7383.0312)" gradientUnits="userSpaceOnUse">
							<stop  offset="0" style="stop-color:#BCBEFF"/>
							<stop  offset="0.2271" style="stop-color:#AAADF8"/>
							<stop  offset="0.6802" style="stop-color:#7C83E5"/>
							<stop  offset="1" style="stop-color:#5761D7"/>
						</radialGradient>
						<path class="st23" d="M63.9,369c-4.6-2.7-8.3-0.6-8.4,4.7c0,5.3,3.6,11.8,8.2,14.5s8.3,0.6,8.4-4.7
							C72.2,378.2,68.5,371.7,63.9,369z"/>
						<g class="st1">
							<path class="st24" d="M88.1,377.1c0-6.9-4.8-15.4-10.7-18.9c-2.2-1.3-4.3-1.7-6-1.4l38.8-35.1l31.1,38.5l-54.4,21.9
								C87.7,380.8,88.1,379.1,88.1,377.1z"/>
						</g>
					</g>
				</g>
			</g>
		</g>
		<g>
			
				<linearGradient id="SVGID_21_" gradientUnits="userSpaceOnUse" x1="142.8359" y1="243.4304" x2="166.674" y2="243.4304" gradientTransform="matrix(1 0 0 -1 0 506.6141)">
				<stop  offset="0" style="stop-color:#BCBEFF"/>
				<stop  offset="0.2271" style="stop-color:#AAADF8"/>
				<stop  offset="0.6802" style="stop-color:#7C83E5"/>
				<stop  offset="1" style="stop-color:#5761D7"/>
			</linearGradient>
			<path class="st25" d="M166.7,229.3l-8.4-5h-0.1l-0.3-0.1l0,0c-1.4-0.6-3.2-0.4-5.1,0.7l-1.3,0.7c-4.8,2.8-8.6,10.2-8.6,16.5v55.6
				l8.3,4.8l1.5-11.7l7.8-4.5v-55.5c0-0.1,0-0.3,0-0.4L166.7,229.3z"/>
			
				<linearGradient id="SVGID_22_" gradientUnits="userSpaceOnUse" x1="151.1498" y1="240.8902" x2="169.7298" y2="240.8902" gradientTransform="matrix(1 0 0 -1 0 506.6141)">
				<stop  offset="0" style="stop-color:#BCBEFF"/>
				<stop  offset="0.2271" style="stop-color:#AAADF8"/>
				<stop  offset="0.6802" style="stop-color:#7C83E5"/>
				<stop  offset="1" style="stop-color:#5761D7"/>
			</linearGradient>
			<path class="st26" d="M169.7,291.9l-18.6,10.7v-55.5c0-6.4,3.9-13.8,8.6-16.5l1.3-0.7c4.8-2.8,8.6,0.2,8.6,6.5L169.7,291.9
				L169.7,291.9z"/>
			<path class="st16" d="M147.3,258.1l-0.3-0.2c-0.6-0.3-1.1-0.3-1.5-0.1l0,0l-2.1,1.2l1.4,0.3c0,0.1,0,0.2,0,0.2v11.7
				c0,1.6,1,3.5,2.2,4.2l-0.4,1.6l2.1-1.2l0,0c0.5-0.2,0.9-0.9,0.8-1.8v-11.7C149.5,260.7,148.5,258.8,147.3,258.1z"/>
			<g>
				<path class="st3" d="M145.2,276.9l-0.3-0.2c-1.2-0.7-2.2-2.6-2.2-4.2v-11.7c0-1.6,1-2.4,2.2-1.7l0.3,0.2
					c1.2,0.7,2.2,2.6,2.2,4.2v11.7C147.4,276.8,146.4,277.6,145.2,276.9z"/>
			</g>
		</g>
		
			<ellipse transform="matrix(0.8794 -0.476 0.476 0.8794 -172.5446 76.0794)" class="st27" cx="63.9" cy="378.7" rx="34.1" ry="59.1"/>
	</g>
	<g>
		
			<linearGradient id="SVGID_23_" gradientUnits="userSpaceOnUse" x1="428.3755" y1="158.0142" x2="106.8754" y2="158.0142" gradientTransform="matrix(1 0 0 -1 0 506.6141)">
			<stop  offset="0" style="stop-color:#16365E"/>
			<stop  offset="0.1779" style="stop-color:#0063A9"/>
			<stop  offset="0.3876" style="stop-color:#2692C7"/>
			<stop  offset="0.6134" style="stop-color:#2692C7"/>
			<stop  offset="0.849" style="stop-color:#2692C7"/>
			<stop  offset="1" style="stop-color:#2692C7"/>
		</linearGradient>
		<path class="st28" d="M434.4,364.2l-10.7-1.5l-186-107.4c-2.1-1.2-5.4-1.4-7.2-0.3l-110.8,64l-6.8-1v9l0,0c0,0.8,0.6,1.7,1.7,2.3
			l195,112.6c2.1,1.2,5.4,1.4,7.2,0.3L433.2,375c0.9-0.5,1.2-1.2,1.2-1.8l0,0L434.4,364.2L434.4,364.2z"/>
		
			<linearGradient id="SVGID_24_" gradientUnits="userSpaceOnUse" x1="-7559.2344" y1="165.5142" x2="-7237.7114" y2="165.5142" gradientTransform="matrix(-1 0 0 -1 -7232.8618 506.6141)">
			<stop  offset="0" style="stop-color:#73B9DB"/>
			<stop  offset="0.2938" style="stop-color:#89C4E0"/>
			<stop  offset="0.6399" style="stop-color:#C4E1F0"/>
			<stop  offset="1" style="stop-color:#F7FBFD"/>
		</linearGradient>
		<path class="st29" d="M114.7,320.4l195,112.6c2.1,1.2,5.4,1.4,7.2,0.3L433.2,366c1.8-1.1,1.6-2.9-0.5-4.2l-195-112.6
			c-2.1-1.2-5.4-1.4-7.2-0.3l-116.3,67.2C112.3,317.3,112.5,319.1,114.7,320.4z"/>
		<path class="st30" d="M131.5,322.6l174.3,100.6c1.9,1.1,4.8,1.2,6.4,0.3l104-60c1.7-1,1.4-2.6-0.5-3.7L241.5,259.1
			c-1.9-1.1-4.8-1.2-6.4-0.3l-104,60C129.4,319.8,129.6,321.5,131.5,322.6z"/>
		<path class="st3" d="M433.2,365.1l-116.3,67.2c-1.8,1.1-5.1,0.9-7.2-0.3l-195-112.6c-0.9-0.5-1.5-1.2-1.7-1.9
			c-0.3,1,0.3,2,1.7,2.8l195,112.6c2.1,1.2,5.4,1.4,7.2,0.3L433.2,366c1-0.6,1.4-1.4,1.2-2.3C434.2,364.2,433.8,364.7,433.2,365.1z"
			/>
	</g>
	<path class="st31" d="M245.2,223.3l-37-21.2c-4.2-2.4-6.8-6.9-6.8-11.7v-61.2h0.7v61.2c0,4.6,2.5,8.8,6.4,11.1l37,21.2L245.2,223.3
		z"/>
	<g>
		<g>
			<g>
				<g>
					<g>
						
							<linearGradient id="SVGID_25_" gradientUnits="userSpaceOnUse" x1="-7697.7837" y1="306.5036" x2="-7470.1401" y2="306.5036" gradientTransform="matrix(-1 0 0 -1 -7232.8618 506.6141)">
							<stop  offset="0" style="stop-color:#C0BFF6"/>
							<stop  offset="0.2938" style="stop-color:#C5C4F7"/>
							<stop  offset="0.6399" style="stop-color:#D3D2F9"/>
							<stop  offset="1" style="stop-color:#E9E9FD"/>
						</linearGradient>
						<path class="st32" d="M237.3,214.2L262,68l-2-0.8l3-1.7l0,0c0.6-0.4,1.4-0.4,2.3,0.2l197,113.7c1.6,0.9,2.8,3.3,2.6,5
							l-24.8,147.4c-0.1,0.8-0.5,1.3-1,1.5l0,0l-2.9,1.7l-0.5-2.7l0.2,0.1l-195.8-113C238.3,218.3,237.1,215.9,237.3,214.2z"/>
						
							<linearGradient id="SVGID_26_" gradientUnits="userSpaceOnUse" x1="-7697.6885" y1="248.1142" x2="-7658.6196" y2="248.1142" gradientTransform="matrix(-1 0 0 -1 -7232.8618 506.6141)">
							<stop  offset="0" style="stop-color:#5761D7"/>
							<stop  offset="0.1779" style="stop-color:#5C66D9"/>
							<stop  offset="0.3876" style="stop-color:#6A73DF"/>
							<stop  offset="0.6134" style="stop-color:#8289E8"/>
							<stop  offset="0.849" style="stop-color:#A3A7F5"/>
							<stop  offset="1" style="stop-color:#BCBEFF"/>
						</linearGradient>
						<path class="st33" d="M461.1,183.4l3.2-1.4c0.4,0.8,0.5,1.7,0.4,2.4l-24.8,147.4c-0.1,0.8-0.5,1.3-1,1.5l0,0L436,335l-0.5-2.7
							l0.2,0.1l-9.9-5.7L461.1,183.4z"/>
						<path class="st34" d="M236.8,221l197,113.7c1.5,0.9,2.8,0.4,3.1-1.2l24.8-147.4c0.3-1.7-0.9-4.1-2.6-5l-197-113.7
							c-1.5-0.9-2.8-0.4-3.1,1.2L234.3,216C234,217.7,235.2,220.1,236.8,221z"/>
						<g class="st35">
							<polygon class="st34" points="261.5,70.2 459.4,184.4 434.4,332.1 236.7,218 							"/>
						</g>
					</g>
					<g>
						
							<linearGradient id="SVGID_27_" gradientUnits="userSpaceOnUse" x1="-7667.1621" y1="184.5142" x2="-7345.8618" y2="184.5142" gradientTransform="matrix(-1 0 0 -1 -7232.8618 506.6141)">
							<stop  offset="0" style="stop-color:#16365E"/>
							<stop  offset="0.1779" style="stop-color:#0063A9"/>
							<stop  offset="0.3876" style="stop-color:#2692C7"/>
							<stop  offset="0.6134" style="stop-color:#2692C7"/>
							<stop  offset="0.849" style="stop-color:#2692C7"/>
							<stop  offset="1" style="stop-color:#2692C7"/>
						</linearGradient>
						<path class="st36" d="M113,290.8l10.7,5.6l107.8-62.2c1.8-1,5-0.9,7,0.3l185.9,107.3c1.8-1,9.9-4.9,9.9-4.9l-3.9,6.4l0,0
							c-0.2,0.5-0.5,0.9-1.1,1.2L315.8,410c-1.8,1-5,0.9-7-0.3L118.5,299.9c-0.9-0.5-1.4-1.1-1.6-1.7l0,0L113,290.8z"/>
						
							<linearGradient id="SVGID_28_" gradientUnits="userSpaceOnUse" x1="-7559.2344" y1="193.3642" x2="-7237.7114" y2="193.3642" gradientTransform="matrix(-1 0 0 -1 -7232.8618 506.6141)">
							<stop  offset="0" style="stop-color:#73B9DB"/>
							<stop  offset="0.2938" style="stop-color:#89C4E0"/>
							<stop  offset="0.6399" style="stop-color:#C4E1F0"/>
							<stop  offset="1" style="stop-color:#F7FBFD"/>
						</linearGradient>
						<path class="st37" d="M114.7,292.5l195,112.6c2.1,1.2,5.4,1.4,7.2,0.3l116.3-67.2c1.8-1.1,1.6-2.9-0.5-4.2l-195-112.6
							c-2.1-1.2-5.4-1.4-7.2-0.3l-116.3,67.2C112.3,289.5,112.5,291.3,114.7,292.5z"/>
						<path class="st3" d="M114.7,291.7l195,112.6c2.1,1.2,5.4,1.4,7.2,0.3l116.3-67.2c0.7-0.4,1-0.9,1.2-1.4
							c0.2,0.8-0.2,1.7-1.2,2.2l-116.3,67.2c-1.8,1.1-5.1,0.9-7.2-0.3l-195-112.6c-1.4-0.8-2-1.9-1.7-2.8
							C113.1,290.4,113.7,291.1,114.7,291.7z"/>
					</g>
				</g>
				<g class="st38">
					<g>
						<defs>
							<polygon id="SVGID_29_" points="459.4,184.4 261.5,70.2 236.7,218 434.4,332.1 							"/>
						</defs>
						<clipPath id="SVGID_30_">
							<use xlink:href="#SVGID_29_"  style="overflow:visible;"/>
						</clipPath>
						<g class="st39">
							<g>
								<linearGradient id="SVGID_31_" gradientUnits="userSpaceOnUse" x1="236.6" y1="251.3999" x2="557.9" y2="251.3999">
									<stop  offset="0" style="stop-color:#16365E"/>
									<stop  offset="0.1779" style="stop-color:#0063A9"/>
									<stop  offset="0.3876" style="stop-color:#2692C7"/>
									<stop  offset="0.6134" style="stop-color:#2692C7"/>
									<stop  offset="0.849" style="stop-color:#2692C7"/>
									<stop  offset="1" style="stop-color:#2692C7"/>
								</linearGradient>
								<path class="st40" d="M236.6,220.1l10.7,5.6l107.8-62.2c1.8-1,5-0.9,7,0.3L548,271.1c1.8-1,9.9-4.9,9.9-4.9l-3.9,6.4l0,0
									c-0.2,0.5-0.5,0.9-1.1,1.2l-113.5,65.5c-1.8,1-5,0.9-7-0.3L242.1,229.2c-0.9-0.5-1.4-1.1-1.6-1.7l0,0L236.6,220.1z"/>
								
									<linearGradient id="SVGID_32_" gradientUnits="userSpaceOnUse" x1="-7682.8008" y1="264.0642" x2="-7361.3521" y2="264.0642" gradientTransform="matrix(-1 0 0 -1 -7232.8618 506.6141)">
									<stop  offset="0" style="stop-color:#73B9DB"/>
									<stop  offset="0.2938" style="stop-color:#89C4E0"/>
									<stop  offset="0.6399" style="stop-color:#C4E1F0"/>
									<stop  offset="1" style="stop-color:#F7FBFD"/>
								</linearGradient>
								<path class="st41" d="M238.2,221.8l195,112.6c2.1,1.2,5.4,1.4,7.2,0.3l116.3-67.2c1.8-1.1,1.6-2.9-0.5-4.2l-195-112.6
									c-2.1-1.2-5.4-1.4-7.2-0.3l-116.3,67.2C235.9,218.7,236.1,220.6,238.2,221.8z"/>
								<path class="st3" d="M556.2,263.4l-195-112.6c-1.4-0.8-3.2-1.1-4.8-1c1.2,0.1,2.4,0.4,3.4,1l195,112.6
									c2.1,1.2,2.4,3.1,0.5,4.2L439,334.7c-0.7,0.4-1.5,0.6-2.4,0.7c1.4,0.1,2.8-0.1,3.8-0.7l116.3-67.2
									C558.6,266.4,558.3,264.6,556.2,263.4z"/>
							</g>
							<g class="st42">
								<path class="st43" d="M340.3,202.5l-6.2-3.6c-0.5-0.3-1.4-0.3-1.9,0.1l-6.9,4.1c-0.5,0.3-0.6,0.8-0.1,1.1l6.2,3.6
									c0.5,0.3,1.4,0.3,1.9-0.1l6.9-4.1C340.8,203.2,340.8,202.7,340.3,202.5z"/>
								<path class="st43" d="M350,208l-6.2-3.6c-0.5-0.3-1.4-0.3-1.9,0.1l-6.9,4.1c-0.5,0.3-0.6,0.8-0.1,1.1l6.2,3.6
									c0.5,0.3,1.4,0.3,1.9-0.1l6.9-4.1C350.5,208.8,350.5,208.3,350,208z"/>
								<path class="st43" d="M359.6,213.6l-6.2-3.6c-0.5-0.3-1.4-0.3-1.9,0.1l-6.9,4.1c-0.5,0.3-0.6,0.8-0.1,1.1l6.2,3.6
									c0.5,0.3,1.4,0.3,1.9-0.1l6.9-4.1C360.1,214.4,360.2,213.9,359.6,213.6z"/>
								<path class="st43" d="M352.3,221l-6.2-3.6c-0.5-0.3-1.4-0.3-1.9,0.1l-5.8,3.4c-0.5,0.3-0.6,0.8-0.1,1.1l6.2,3.6
									c0.5,0.3,1.4,0.3,1.9-0.1l5.8-3.4C352.8,221.8,352.8,221.3,352.3,221z"/>
								<path class="st43" d="M362,226.6l-6.2-3.6c-0.5-0.3-1.4-0.3-1.9,0.1l-5.8,3.4c-0.5,0.3-0.6,0.8-0.1,1.1l6.2,3.6
									c0.5,0.3,1.4,0.3,1.9-0.1l5.8-3.4C362.4,227.4,362.5,226.9,362,226.6z"/>
								<path class="st43" d="M371.6,232.2l-6.2-3.6c-0.5-0.3-1.4-0.3-1.9,0.1l-5.8,3.4c-0.5,0.3-0.6,0.8-0.1,1.1l6.2,3.6
									c0.5,0.3,1.4,0.3,1.9-0.1l5.8-3.4C372.1,232.9,372.1,232.4,371.6,232.2z"/>
								<path class="st43" d="M381.3,237.7l-6.2-3.6c-0.5-0.3-1.4-0.3-1.9,0.1l-5.8,3.4c-0.5,0.3-0.6,0.8-0.1,1.1l6.2,3.6
									c0.5,0.3,1.4,0.3,1.9-0.1l5.8-3.4C381.7,238.5,381.8,238,381.3,237.7z"/>
								<path class="st43" d="M390.9,243.3l-6.2-3.6c-0.5-0.3-1.4-0.3-1.9,0.1l-5.8,3.4c-0.5,0.3-0.6,0.8-0.1,1.1l6.2,3.6
									c0.5,0.3,1.4,0.3,1.9-0.1l5.8-3.4C391.4,244.1,391.4,243.6,390.9,243.3z"/>
								<path class="st43" d="M400.6,248.9l-6.2-3.6c-0.5-0.3-1.4-0.3-1.9,0.1l-5.8,3.4c-0.5,0.3-0.6,0.8-0.1,1.1l6.2,3.6
									c0.5,0.3,1.4,0.3,1.9-0.1l5.8-3.4C401,249.7,401.1,249.2,400.6,248.9z"/>
								<path class="st43" d="M410.2,254.4l-6.2-3.6c-0.5-0.3-1.4-0.3-1.9,0.1l-5.8,3.4c-0.5,0.3-0.6,0.8-0.1,1.1l6.2,3.6
									c0.5,0.3,1.4,0.3,1.9-0.1l5.8-3.4C410.7,255.2,410.7,254.7,410.2,254.4z"/>
								<path class="st43" d="M419.9,260l-6.2-3.6c-0.5-0.3-1.4-0.3-1.9,0.1l-5.8,3.4c-0.5,0.3-0.6,0.8-0.1,1.1l6.2,3.6
									c0.5,0.3,1.4,0.3,1.9-0.1l5.8-3.4C420.3,260.8,420.4,260.3,419.9,260z"/>
								<path class="st43" d="M429.5,265.6l-6.2-3.6c-0.5-0.3-1.4-0.3-1.9,0.1l-5.8,3.4c-0.5,0.3-0.6,0.8-0.1,1.1l6.2,3.6
									c0.5,0.3,1.4,0.3,1.9-0.1l5.8-3.4C430,266.4,430,265.9,429.5,265.6z"/>
								<path class="st43" d="M439.2,271.2l-6.2-3.6c-0.5-0.3-1.4-0.3-1.9,0.1l-5.8,3.4c-0.5,0.3-0.6,0.8-0.1,1.1l6.2,3.6
									c0.5,0.3,1.4,0.3,1.9-0.1l5.8-3.4C439.6,271.9,439.7,271.4,439.2,271.2z"/>
								<path class="st43" d="M348.3,229l-6.2-3.6c-0.5-0.3-1.4-0.3-1.9,0.1l-5.8,3.4c-0.5,0.3-0.6,0.8-0.1,1.1l6.2,3.6
									c0.5,0.3,1.4,0.3,1.9-0.1l5.8-3.4C348.7,229.7,348.8,229.3,348.3,229z"/>
								<path class="st43" d="M338.5,223.3l-6.2-3.6c-0.5-0.3-1.4-0.3-1.9,0.1l-5.8,3.4c-0.5,0.3-0.6,0.8-0.1,1.1l6.2,3.6
									c0.5,0.3,1.4,0.3,1.9-0.1l5.8-3.4C339,224.1,339,223.6,338.5,223.3z"/>
								<path class="st43" d="M328.7,217.6l-13.5-7.8c-0.5-0.3-1.4-0.3-1.9,0.1l-5.8,3.4c-0.5,0.3-0.6,0.8-0.1,1.1l13.5,7.8
									c0.5,0.3,1.4,0.3,1.9-0.1l5.8-3.4C329.1,218.4,329.2,217.9,328.7,217.6z"/>
								<path class="st43" d="M317.3,221.3l-10.9-6.3c-0.5-0.3-1.4-0.3-1.9,0.1l-5.8,3.4c-0.5,0.3-0.6,0.8-0.1,1.1l10.9,6.3
									c0.5,0.3,1.4,0.3,1.9-0.1l5.8-3.4C317.8,222.1,317.8,221.6,317.3,221.3z"/>
								<path class="st43" d="M357.9,234.5l-6.2-3.6c-0.5-0.3-1.4-0.3-1.9,0.1l-5.8,3.4c-0.5,0.3-0.6,0.8-0.1,1.1l6.2,3.6
									c0.5,0.3,1.4,0.3,1.9-0.1l5.8-3.4C358.4,235.3,358.4,234.8,357.9,234.5z"/>
								<path class="st43" d="M367.6,240.1l-6.2-3.6c-0.5-0.3-1.4-0.3-1.9,0.1l-5.8,3.4c-0.5,0.3-0.6,0.8-0.1,1.1l6.2,3.6
									c0.5,0.3,1.4,0.3,1.9-0.1l5.8-3.4C368,240.9,368.1,240.4,367.6,240.1z"/>
								<path class="st43" d="M377.2,245.7l-6.2-3.6c-0.5-0.3-1.4-0.3-1.9,0.1l-5.8,3.4c-0.5,0.3-0.6,0.8-0.1,1.1l6.2,3.6
									c0.5,0.3,1.4,0.3,1.9-0.1l5.8-3.4C377.7,246.5,377.7,246,377.2,245.7z"/>
								<path class="st43" d="M386.9,251.3l-6.2-3.6c-0.5-0.3-1.4-0.3-1.9,0.1l-5.8,3.4c-0.5,0.3-0.6,0.8-0.1,1.1l6.2,3.6
									c0.5,0.3,1.4,0.3,1.9-0.1l5.8-3.4C387.3,252,387.4,251.5,386.9,251.3z"/>
								<path class="st43" d="M396.5,256.8l-6.2-3.6c-0.5-0.3-1.4-0.3-1.9,0.1l-5.8,3.4c-0.5,0.3-0.6,0.8-0.1,1.1l6.2,3.6
									c0.5,0.3,1.4,0.3,1.9-0.1l5.8-3.4C397,257.6,397,257.1,396.5,256.8z"/>
								<path class="st43" d="M406.2,262.4l-6.2-3.6c-0.5-0.3-1.4-0.3-1.9,0.1l-5.8,3.4c-0.5,0.3-0.6,0.8-0.1,1.1l6.2,3.6
									c0.5,0.3,1.4,0.3,1.9-0.1l5.8-3.4C406.7,263.2,406.7,262.7,406.2,262.4z"/>
								<path class="st43" d="M415.8,268l-6.2-3.6c-0.5-0.3-1.4-0.3-1.9,0.1l-5.8,3.4c-0.5,0.3-0.6,0.8-0.1,1.1l6.2,3.6
									c0.5,0.3,1.4,0.3,1.9-0.1l5.8-3.4C416.3,268.7,416.3,268.3,415.8,268z"/>
								<path class="st43" d="M425.5,273.5l-6.2-3.6c-0.5-0.3-1.4-0.3-1.9,0.1l-5.8,3.4c-0.5,0.3-0.6,0.8-0.1,1.1l6.2,3.6
									c0.5,0.3,1.4,0.3,1.9-0.1l5.8-3.4C426,274.3,426,273.8,425.5,273.5z"/>
								<path class="st43" d="M435.1,279.1l-6.2-3.6c-0.5-0.3-1.4-0.3-1.9,0.1l-5.8,3.4c-0.5,0.3-0.6,0.8-0.1,1.1l6.2,3.6
									c0.5,0.3,1.4,0.3,1.9-0.1l5.8-3.4C435.6,279.9,435.6,279.4,435.1,279.1z"/>
								<path class="st43" d="M452.3,289l-13.6-7.9c-0.5-0.3-1.4-0.3-1.9,0.1l-5.8,3.4c-0.5,0.3-0.6,0.8-0.1,1.1l13.6,7.9
									c0.5,0.3,1.4,0.3,1.9-0.1l5.8-3.4C452.8,289.8,452.8,289.3,452.3,289z"/>
								<path class="st43" d="M434.6,299.4l-11.5-6.6c-0.5-0.3-1.4-0.3-1.9,0.1l-5.8,3.4c-0.5,0.3-0.6,0.8-0.1,1.1l11.5,6.6
									c0.5,0.3,1.4,0.3,1.9-0.1l5.8-3.4C435.1,300.1,435.1,299.6,434.6,299.4z"/>
								<path class="st43" d="M356.6,244l-6.2-3.6c-0.5-0.3-1.4-0.3-1.9,0.1l-5.8,3.4c-0.5,0.3-0.6,0.8-0.1,1.1l6.2,3.6
									c0.5,0.3,1.4,0.3,1.9-0.1l5.8-3.4C357.1,244.8,357.1,244.3,356.6,244z"/>
								<path class="st43" d="M346.7,238.3l-6.2-3.6c-0.5-0.3-1.4-0.3-1.9,0.1l-5.8,3.4c-0.5,0.3-0.6,0.8-0.1,1.1l6.2,3.6
									c0.5,0.3,1.4,0.3,1.9-0.1l5.8-3.4C347.2,239.1,347.2,238.6,346.7,238.3z"/>
								<path class="st43" d="M336.8,232.6l-6.2-3.6c-0.5-0.3-1.4-0.3-1.9,0.1l-5.8,3.4c-0.5,0.3-0.6,0.8-0.1,1.1l6.2,3.6
									c0.5,0.3,1.4,0.3,1.9-0.1l5.8-3.4C337.3,233.4,337.3,232.9,336.8,232.6z"/>
								<path class="st43" d="M326.9,226.9l-6.2-3.6c-0.5-0.3-1.4-0.3-1.9,0.1l-5.8,3.4c-0.5,0.3-0.6,0.8-0.1,1.1l6.2,3.6
									c0.5,0.3,1.4,0.3,1.9-0.1l5.8-3.4C327.4,227.7,327.4,227.2,326.9,226.9z"/>
								<path class="st43" d="M366.2,249.6L360,246c-0.5-0.3-1.4-0.3-1.9,0.1l-5.8,3.4c-0.5,0.3-0.6,0.8-0.1,1.1l6.2,3.6
									c0.5,0.3,1.4,0.3,1.9-0.1l5.8-3.4C366.7,250.4,366.7,249.9,366.2,249.6z"/>
								<path class="st43" d="M375.9,255.2l-6.2-3.6c-0.5-0.3-1.4-0.3-1.9,0.1l-5.8,3.4c-0.5,0.3-0.6,0.8-0.1,1.1l6.2,3.6
									c0.5,0.3,1.4,0.3,1.9-0.1l5.8-3.4C376.4,256,376.4,255.5,375.9,255.2z"/>
								<path class="st43" d="M385.5,260.8l-6.2-3.6c-0.5-0.3-1.4-0.3-1.9,0.1l-5.8,3.4c-0.5,0.3-0.6,0.8-0.1,1.1l6.2,3.6
									c0.5,0.3,1.4,0.3,1.9-0.1l5.8-3.4C386,261.5,386,261,385.5,260.8z"/>
								<path class="st43" d="M395.2,266.3l-6.2-3.6c-0.5-0.3-1.4-0.3-1.9,0.1l-5.8,3.4c-0.5,0.3-0.6,0.8-0.1,1.1l6.2,3.6
									c0.5,0.3,1.4,0.3,1.9-0.1l5.8-3.4C395.7,267.1,395.7,266.6,395.2,266.3z"/>
								<path class="st43" d="M404.8,271.9l-6.2-3.6c-0.5-0.3-1.4-0.3-1.9,0.1l-5.8,3.4c-0.5,0.3-0.6,0.8-0.1,1.1l6.2,3.6
									c0.5,0.3,1.4,0.3,1.9-0.1l5.8-3.4C405.3,272.7,405.3,272.2,404.8,271.9z"/>
								<path class="st43" d="M414.5,277.5l-6.2-3.6c-0.5-0.3-1.4-0.3-1.9,0.1l-5.8,3.4c-0.5,0.3-0.6,0.8-0.1,1.1l6.2,3.6
									c0.5,0.3,1.4,0.3,1.9-0.1l5.8-3.4C415,278.3,415,277.8,414.5,277.5z"/>
								<path class="st43" d="M424.1,283l-6.2-3.6c-0.5-0.3-1.4-0.3-1.9,0.1l-5.8,3.4c-0.5,0.3-0.6,0.8-0.1,1.1l6.2,3.6
									c0.5,0.3,1.4,0.3,1.9-0.1l5.8-3.4C424.6,283.8,424.6,283.3,424.1,283z"/>
								<path class="st43" d="M433.8,288.6l-6.2-3.6c-0.5-0.3-1.4-0.3-1.9,0.1l-5.8,3.4c-0.5,0.3-0.6,0.8-0.1,1.1l6.2,3.6
									c0.5,0.3,1.4,0.3,1.9-0.1l5.8-3.4C434.3,289.4,434.3,288.9,433.8,288.6z"/>
								<path class="st43" d="M443.4,294.2l-6.2-3.6c-0.5-0.3-1.4-0.3-1.9,0.1l-5.8,3.4c-0.5,0.3-0.6,0.8-0.1,1.1l6.2,3.6
									c0.5,0.3,1.4,0.3,1.9-0.1l5.8-3.4C443.9,295,443.9,294.5,443.4,294.2z"/>
								<path class="st43" d="M333.3,240.8l-6.2-3.6c-0.5-0.3-1.4-0.3-1.9,0.1l-5.8,3.4c-0.5,0.3-0.6,0.8-0.1,1.1l6.2,3.6
									c0.5,0.3,1.4,0.3,1.9-0.1l5.8-3.4C333.7,241.6,333.8,241.1,333.3,240.8z"/>
								<path class="st43" d="M323.7,235.3l-6.2-3.6c-0.5-0.3-1.4-0.3-1.9,0.1l-5.8,3.4c-0.5,0.3-0.6,0.8-0.1,1.1l6.2,3.6
									c0.5,0.3,1.4,0.3,1.9-0.1l5.8-3.4C324.1,236.1,324.2,235.6,323.7,235.3z"/>
								<path class="st43" d="M314.1,229.8l-6.2-3.6c-0.5-0.3-1.4-0.3-1.9,0.1l-5.8,3.4c-0.5,0.3-0.6,0.8-0.1,1.1l6.2,3.6
									c0.5,0.3,1.4,0.3,1.9-0.1l5.8-3.4C314.5,230.5,314.6,230,314.1,229.8z"/>
								<path class="st43" d="M304.5,224.2l-6.2-3.6c-0.5-0.3-1.4-0.3-1.9,0.1l-5.8,3.4c-0.5,0.3-0.6,0.8-0.1,1.1l6.2,3.6
									c0.5,0.3,1.4,0.3,1.9-0.1l5.8-3.4C304.9,225,305,224.5,304.5,224.2z"/>
								<path class="st43" d="M295.2,229.6L289,226c-0.5-0.3-1.4-0.3-1.9,0.1l-1.9,1.1c-0.5,0.3-0.6,0.8-0.1,1.1l6.2,3.6
									c0.5,0.3,1.4,0.3,1.9-0.1l1.9-1.1C295.6,230.4,295.7,229.9,295.2,229.6z"/>
								<path class="st43" d="M307.7,236.9l-6.2-3.6c-0.5-0.3-1.4-0.3-1.9,0.1l-1.9,1.1c-0.5,0.3-0.6,0.8-0.1,1.1l6.2,3.6
									c0.5,0.3,1.4,0.3,1.9-0.1l1.9-1.1C308.2,237.7,308.2,237.2,307.7,236.9z"/>
								<path class="st43" d="M317.3,242.4l-6.2-3.6c-0.5-0.3-1.4-0.3-1.9,0.1l-1.9,1.1c-0.5,0.3-0.6,0.8-0.1,1.1l6.2,3.6
									c0.5,0.3,1.4,0.3,1.9-0.1l1.9-1.1C317.7,243.2,317.8,242.7,317.3,242.4z"/>
								<path class="st43" d="M326.8,247.9l-6.2-3.6c-0.5-0.3-1.4-0.3-1.9,0.1l-1.9,1.1c-0.5,0.3-0.6,0.8-0.1,1.1l6.2,3.6
									c0.5,0.3,1.4,0.3,1.9-0.1l1.9-1.1C327.3,248.7,327.3,248.2,326.8,247.9z"/>
								<path class="st43" d="M336.4,253.4l-6.2-3.6c-0.5-0.3-1.4-0.3-1.9,0.1l-1.9,1.1c-0.5,0.3-0.6,0.8-0.1,1.1l6.2,3.6
									c0.5,0.3,1.4,0.3,1.9-0.1l1.9-1.1C336.9,254.2,336.9,253.7,336.4,253.4z"/>
								<path class="st43" d="M389.8,284.3l-6.2-3.6c-0.5-0.3-1.4-0.3-1.9,0.1l-1.9,1.1c-0.5,0.3-0.6,0.8-0.1,1.1l6.2,3.6
									c0.5,0.3,1.4,0.3,1.9-0.1l1.9-1.1C390.2,285.1,390.3,284.6,389.8,284.3z"/>
								<path class="st43" d="M399.3,289.8l-6.2-3.6c-0.5-0.3-1.4-0.3-1.9,0.1l-1.9,1.1c-0.5,0.3-0.6,0.8-0.1,1.1l6.2,3.6
									c0.5,0.3,1.4,0.3,1.9-0.1l1.9-1.1C399.8,290.6,399.8,290.1,399.3,289.8z"/>
								<path class="st43" d="M408.9,295.3l-6.2-3.6c-0.5-0.3-1.4-0.3-1.9,0.1l-1.9,1.1c-0.5,0.3-0.6,0.8-0.1,1.1l6.2,3.6
									c0.5,0.3,1.4,0.3,1.9-0.1l1.9-1.1C409.4,296.1,409.4,295.6,408.9,295.3z"/>
								<path class="st43" d="M418.5,300.8l-6.2-3.6c-0.5-0.3-1.4-0.3-1.9,0.1l-1.9,1.1c-0.5,0.3-0.6,0.8-0.1,1.1l6.2,3.6
									c0.5,0.3,1.4,0.3,1.9-0.1l1.9-1.1C418.9,301.6,419,301.1,418.5,300.8z"/>
								<path class="st43" d="M342.9,246.4l-6.2-3.6c-0.5-0.3-1.4-0.3-1.9,0.1l-5.8,3.4c-0.5,0.3-0.6,0.8-0.1,1.1l6.2,3.6
									c0.5,0.3,1.4,0.3,1.9-0.1l5.8-3.4C343.4,247.2,343.4,246.7,342.9,246.4z"/>
								<path class="st43" d="M352.6,252l-6.2-3.6c-0.5-0.3-1.4-0.3-1.9,0.1l-5.8,3.4c-0.5,0.3-0.6,0.8-0.1,1.1l6.2,3.6
									c0.5,0.3,1.4,0.3,1.9-0.1l5.8-3.4C353,252.8,353.1,252.3,352.6,252z"/>
								<path class="st43" d="M362.2,257.6L356,254c-0.5-0.3-1.4-0.3-1.9,0.1l-5.8,3.4c-0.5,0.3-0.6,0.8-0.1,1.1l6.2,3.6
									c0.5,0.3,1.4,0.3,1.9-0.1l5.8-3.4C362.7,258.3,362.7,257.9,362.2,257.6z"/>
								<path class="st43" d="M371.9,263.1l-6.2-3.6c-0.5-0.3-1.4-0.3-1.9,0.1L358,263c-0.5,0.3-0.6,0.8-0.1,1.1l6.2,3.6
									c0.5,0.3,1.4,0.3,1.9-0.1l5.8-3.4C372.3,263.9,372.4,263.4,371.9,263.1z"/>
								<path class="st43" d="M381.5,268.7l-6.2-3.6c-0.5-0.3-1.4-0.3-1.9,0.1l-5.8,3.4c-0.5,0.3-0.6,0.8-0.1,1.1l6.2,3.6
									c0.5,0.3,1.4,0.3,1.9-0.1l5.8-3.4C382,269.5,382,269,381.5,268.7z"/>
								<path class="st43" d="M391.2,274.3l-6.2-3.6c-0.5-0.3-1.4-0.3-1.9,0.1l-5.8,3.4c-0.5,0.3-0.6,0.8-0.1,1.1l6.2,3.6
									c0.5,0.3,1.4,0.3,1.9-0.1l5.8-3.4C391.6,275.1,391.7,274.6,391.2,274.3z"/>
								<path class="st43" d="M400.8,279.8l-6.2-3.6c-0.5-0.3-1.4-0.3-1.9,0.1l-5.8,3.4c-0.5,0.3-0.6,0.8-0.1,1.1l6.2,3.6
									c0.5,0.3,1.4,0.3,1.9-0.1l5.8-3.4C401.3,280.6,401.3,280.1,400.8,279.8z"/>
								<path class="st43" d="M410.5,285.4l-6.2-3.6c-0.5-0.3-1.4-0.3-1.9,0.1l-5.8,3.4c-0.5,0.3-0.6,0.8-0.1,1.1l6.2,3.6
									c0.5,0.3,1.4,0.3,1.9-0.1l5.8-3.4C410.9,286.2,411,285.7,410.5,285.4z"/>
								<path class="st43" d="M420.1,291l-6.2-3.6c-0.5-0.3-1.4-0.3-1.9,0.1l-5.8,3.4c-0.5,0.3-0.6,0.8-0.1,1.1l6.2,3.6
									c0.5,0.3,1.4,0.3,1.9-0.1l5.8-3.4C420.6,291.8,420.6,291.3,420.1,291z"/>
								<path class="st43" d="M342.5,215.3l-18.4-10.6c-0.5-0.3-1.4-0.3-1.9,0.1l-5.8,3.4c-0.5,0.3-0.6,0.8-0.1,1.1l18.4,10.6
									c0.5,0.3,1.4,0.3,1.9-0.1l5.8-3.4C342.9,216.1,343,215.6,342.5,215.3z"/>
								<path class="st43" d="M461,283.8l-18.4-10.6c-0.5-0.3-1.4-0.3-1.9,0.1l-5.8,3.4c-0.5,0.3-0.6,0.8-0.1,1.1l18.4,10.6
									c0.5,0.3,1.4,0.3,1.9-0.1l5.8-3.4C461.5,284.6,461.5,284.1,461,283.8z"/>
								<path class="st43" d="M443.1,261.8l-6.2-3.6c-0.5-0.3-1.4-0.3-1.9,0.1l-6.9,4.1c-0.5,0.3-0.6,0.8-0.1,1.1l6.2,3.6
									c0.5,0.3,1.4,0.3,1.9-0.1l6.9-4.1C443.6,262.6,443.6,262.1,443.1,261.8z"/>
								<path class="st43" d="M373,221.3l-10-5.8c-0.5-0.3-1.4-0.3-1.9,0.1l-6.9,4.1c-0.5,0.3-0.6,0.8-0.1,1.1l10,5.8
									c0.5,0.3,1.4,0.3,1.9-0.1l6.9-4.1C373.5,222.1,373.5,221.6,373,221.3z"/>
								<path class="st43" d="M433.8,256.4l-10-5.8c-0.5-0.3-1.4-0.3-1.9,0.1l-6.9,4.1c-0.5,0.3-0.6,0.8-0.1,1.1l10,5.8
									c0.5,0.3,1.4,0.3,1.9-0.1l6.9-4.1C434.3,257.2,434.3,256.7,433.8,256.4z"/>
								<path class="st43" d="M387,229.4l-10-5.8c-0.5-0.3-1.4-0.3-1.9,0.1l-6.9,4.1c-0.5,0.3-0.6,0.8-0.1,1.1l10,5.8
									c0.5,0.3,1.4,0.3,1.9-0.1l6.9-4.1C387.4,230.1,387.5,229.7,387,229.4z"/>
								<path class="st43" d="M368.1,228.8l43.5,25.1c0.5,0.3,1.4,0.3,1.9,0l7.1-4.1c0.5-0.3,0.5-0.8-0.1-1.1L377,223.6L368.1,228.8
									z"/>
								<path class="st43" d="M460.9,277.2l7,4c0.4,0.2,1.1,0.2,1.6,0l2.8-1.7c0.4-0.3,0.5-0.7,0.1-0.9l-7-4c-0.4-0.2-1.1-0.2-1.6,0
									l-2.8,1.7C460.5,276.6,460.5,277,460.9,277.2z"/>
								<path class="st43" d="M451.2,271.6l7,4c0.4,0.2,1.1,0.2,1.6,0l2.8-1.7c0.4-0.3,0.5-0.7,0.1-0.9l-7-4c-0.4-0.2-1.1-0.2-1.6,0
									l-2.8,1.7C450.8,271,450.8,271.4,451.2,271.6z"/>
								<path class="st43" d="M441.5,266l7,4c0.4,0.2,1.1,0.2,1.6,0l2.8-1.7c0.4-0.3,0.5-0.7,0.1-0.9l-7-4c-0.4-0.2-1.1-0.2-1.6,0
									l-2.8,1.7C441.1,265.4,441.1,265.8,441.5,266z"/>
								<path class="st43" d="M446.2,274.5l7,4c0.4,0.2,1.1,0.2,1.6,0l2.8-1.7c0.4-0.3,0.5-0.7,0.1-0.9l-7-4c-0.4-0.2-1.1-0.2-1.6,0
									l-2.8,1.7C445.8,273.9,445.7,274.3,446.2,274.5z"/>
							</g>
						</g>
					</g>
				</g>
			</g>
			<g class="st44">
				<path class="st45" d="M204.3,280.1l-6.2-3.6c-0.5-0.3-0.4-0.8,0.1-1.1l7.3-4.2c0.6-0.3,1.4-0.4,1.9-0.1l6.2,3.6
					c0.5,0.3,0.4,0.8-0.1,1.1l-7.3,4.2C205.7,280.3,204.8,280.4,204.3,280.1z"/>
				<path class="st45" d="M213.9,285.6l-6.2-3.6c-0.5-0.3-0.4-0.8,0.1-1.1l7.3-4.2c0.6-0.3,1.4-0.4,1.9-0.1l6.2,3.6
					c0.5,0.3,0.4,0.8-0.1,1.1l-7.3,4.2C215.3,285.9,214.4,285.9,213.9,285.6z"/>
				<path class="st45" d="M223.5,291.1l-6.2-3.6c-0.5-0.3-0.4-0.8,0.1-1.1l7.3-4.2c0.6-0.3,1.4-0.4,1.9-0.1l6.2,3.6
					c0.5,0.3,0.4,0.8-0.1,1.1l-7.3,4.2C224.8,291.4,224,291.4,223.5,291.1z"/>
				<path class="st45" d="M236.7,286.6l-6.2-3.6c-0.5-0.3-0.4-0.8,0.1-1.1l6.1-3.5c0.6-0.3,1.4-0.4,1.9-0.1l6.2,3.6
					c0.5,0.3,0.4,0.8-0.1,1.1l-6.1,3.5C238,286.8,237.2,286.8,236.7,286.6z"/>
				<path class="st45" d="M246.2,292.1l-6.2-3.6c-0.5-0.3-0.4-0.8,0.1-1.1l6.1-3.5c0.6-0.3,1.4-0.4,1.9-0.1l6.2,3.6
					c0.5,0.3,0.4,0.8-0.1,1.1l-6.1,3.5C247.6,292.3,246.7,292.4,246.2,292.1z"/>
				<path class="st45" d="M255.8,297.6l-6.2-3.6c-0.5-0.3-0.4-0.8,0.1-1.1l6.1-3.5c0.6-0.3,1.4-0.4,1.9-0.1l6.2,3.6
					c0.5,0.3,0.4,0.8-0.1,1.1l-6.1,3.5C257.2,297.8,256.3,297.9,255.8,297.6z"/>
				<path class="st45" d="M265.3,303.1l-6.2-3.6c-0.5-0.3-0.4-0.8,0.1-1.1l6.1-3.5c0.6-0.3,1.4-0.4,1.9-0.1l6.2,3.6
					c0.5,0.3,0.4,0.8-0.1,1.1l-6.1,3.5C266.7,303.4,265.8,303.4,265.3,303.1z"/>
				<path class="st45" d="M274.9,308.6l-6.2-3.6c-0.5-0.3-0.4-0.8,0.1-1.1l6.1-3.5c0.6-0.3,1.4-0.4,1.9-0.1l6.2,3.6
					c0.5,0.3,0.4,0.8-0.1,1.1l-6.1,3.5C276.3,308.9,275.4,308.9,274.9,308.6z"/>
				<path class="st45" d="M284.5,314.2l-6.2-3.6c-0.5-0.3-0.4-0.8,0.1-1.1l6.1-3.5c0.6-0.3,1.4-0.4,1.9-0.1l6.2,3.6
					c0.5,0.3,0.4,0.8-0.1,1.1l-6.1,3.5C285.8,314.4,285,314.4,284.5,314.2z"/>
				<path class="st45" d="M294,319.7l-6.2-3.6c-0.5-0.3-0.4-0.8,0.1-1.1l6.1-3.5c0.6-0.3,1.4-0.4,1.9-0.1l6.2,3.6
					c0.5,0.3,0.4,0.8-0.1,1.1l-6.1,3.5C295.4,319.9,294.5,320,294,319.7z"/>
				<path class="st45" d="M303.6,325.2l-6.2-3.6c-0.5-0.3-0.4-0.8,0.1-1.1l6.1-3.5c0.6-0.3,1.4-0.4,1.9-0.1l6.2,3.6
					c0.5,0.3,0.4,0.8-0.1,1.1l-6.1,3.5C304.9,325.4,304.1,325.5,303.6,325.2z"/>
				<path class="st45" d="M313.1,330.7l-6.2-3.6c-0.5-0.3-0.4-0.8,0.1-1.1l6.1-3.5c0.6-0.3,1.4-0.4,1.9-0.1l6.2,3.6
					c0.5,0.3,0.4,0.8-0.1,1.1l-6.1,3.5C314.5,331,313.6,331,313.1,330.7z"/>
				<path class="st45" d="M322.7,336.2l-6.2-3.6c-0.5-0.3-0.4-0.8,0.1-1.1l6.1-3.5c0.6-0.3,1.4-0.4,1.9-0.1l6.2,3.6
					c0.5,0.3,0.4,0.8-0.1,1.1l-6.1,3.5C324.1,336.5,323.2,336.5,322.7,336.2z"/>
				<path class="st45" d="M250.8,283.9l-6.2-3.6c-0.5-0.3-0.4-0.8,0.1-1.1l6.1-3.5c0.6-0.3,1.4-0.4,1.9-0.1l6.2,3.6
					c0.5,0.3,0.4,0.8-0.1,1.1l-6.1,3.5C252.1,284.2,251.3,284.2,250.8,283.9z"/>
				<path class="st45" d="M241.1,278.3l-6.2-3.6c-0.5-0.3-0.4-0.8,0.1-1.1l6.1-3.5c0.6-0.3,1.4-0.4,1.9-0.1l6.2,3.6
					c0.5,0.3,0.4,0.8-0.1,1.1l-6.1,3.5C242.4,278.6,241.6,278.6,241.1,278.3z"/>
				<path class="st45" d="M231.3,272.7L218,265c-0.5-0.3-0.4-0.8,0.1-1.1l6.1-3.5c0.6-0.3,1.4-0.4,1.9-0.1l13.3,7.7
					c0.5,0.3,0.4,0.8-0.1,1.1l-6.1,3.5C232.7,273,231.8,273,231.3,272.7z"/>
				<path class="st45" d="M238.1,265.9l-10.8-6.2c-0.5-0.3-0.4-0.8,0.1-1.1l6.1-3.5c0.6-0.3,1.4-0.4,1.9-0.1l10.8,6.2
					c0.5,0.3,0.4,0.8-0.1,1.1l-6.1,3.5C239.5,266.2,238.6,266.2,238.1,265.9z"/>
				<path class="st45" d="M260.3,289.5l-6.2-3.6c-0.5-0.3-0.4-0.8,0.1-1.1l6.1-3.5c0.6-0.3,1.4-0.4,1.9-0.1l6.2,3.6
					c0.5,0.3,0.4,0.8-0.1,1.1l-6.1,3.5C261.7,289.7,260.8,289.8,260.3,289.5z"/>
				<path class="st45" d="M269.9,295l-6.2-3.6c-0.5-0.3-0.4-0.8,0.1-1.1l6.1-3.5c0.6-0.3,1.4-0.4,1.9-0.1l6.2,3.6
					c0.5,0.3,0.4,0.8-0.1,1.1l-6.1,3.5C271.2,295.2,270.4,295.3,269.9,295z"/>
				<path class="st45" d="M279.4,300.5l-6.2-3.6c-0.5-0.3-0.4-0.8,0.1-1.1l6.1-3.5c0.6-0.3,1.4-0.4,1.9-0.1l6.2,3.6
					c0.5,0.3,0.4,0.8-0.1,1.1l-6.1,3.5C280.8,300.8,279.9,300.8,279.4,300.5z"/>
				<path class="st45" d="M289,306l-6.2-3.6c-0.5-0.3-0.4-0.8,0.1-1.1l6.1-3.5c0.6-0.3,1.4-0.4,1.9-0.1l6.2,3.6
					c0.5,0.3,0.4,0.8-0.1,1.1l-6.1,3.5C290.4,306.3,289.5,306.3,289,306z"/>
				<path class="st45" d="M298.5,311.5l-6.2-3.6c-0.5-0.3-0.4-0.8,0.1-1.1l6.1-3.5c0.6-0.3,1.4-0.4,1.9-0.1l6.2,3.6
					c0.5,0.3,0.4,0.8-0.1,1.1l-6.1,3.5C299.9,311.8,299,311.8,298.5,311.5z"/>
				<path class="st45" d="M308.1,317.1l-6.2-3.6c-0.5-0.3-0.4-0.8,0.1-1.1l6.1-3.5c0.6-0.3,1.4-0.4,1.9-0.1l6.2,3.6
					c0.5,0.3,0.4,0.8-0.1,1.1L310,317C309.5,317.3,308.6,317.3,308.1,317.1z"/>
				<path class="st45" d="M317.7,322.6l-6.2-3.6c-0.5-0.3-0.4-0.8,0.1-1.1l6.1-3.5c0.6-0.3,1.4-0.4,1.9-0.1l6.2,3.6
					c0.5,0.3,0.4,0.8-0.1,1.1l-6.1,3.5C319,322.8,318.2,322.9,317.7,322.6z"/>
				<path class="st45" d="M327.2,328.1l-6.2-3.6c-0.5-0.3-0.4-0.8,0.1-1.1l6.1-3.5c0.6-0.3,1.4-0.4,1.9-0.1l6.2,3.6
					c0.5,0.3,0.4,0.8-0.1,1.1l-6.1,3.5C328.6,328.3,327.7,328.4,327.2,328.1z"/>
				<path class="st45" d="M336.8,333.6l-6.2-3.6c-0.5-0.3-0.4-0.8,0.1-1.1l6.1-3.5c0.6-0.3,1.4-0.4,1.9-0.1l6.2,3.6
					c0.5,0.3,0.4,0.8-0.1,1.1l-6.1,3.5C338.1,333.9,337.3,333.9,336.8,333.6z"/>
				<path class="st45" d="M353.8,343.4l-13.5-7.8c-0.5-0.3-0.4-0.8,0.1-1.1l6.1-3.5c0.6-0.3,1.4-0.4,1.9-0.1l13.5,7.8
					c0.5,0.3,0.4,0.8-0.1,1.1l-6.1,3.5C355.1,343.7,354.3,343.7,353.8,343.4z"/>
				<path class="st45" d="M372.4,332.7l-11.4-6.6c-0.5-0.3-0.4-0.8,0.1-1.1l6.1-3.5c0.6-0.3,1.4-0.4,1.9-0.1l11.4,6.6
					c0.5,0.3,0.4,0.8-0.1,1.1l-6.1,3.5C373.7,332.9,372.9,333,372.4,332.7z"/>
				<path class="st45" d="M277.1,288.4l-6.2-3.6c-0.5-0.3-0.4-0.8,0.1-1.1l6.1-3.5c0.6-0.3,1.4-0.4,1.9-0.1l6.2,3.6
					c0.5,0.3,0.4,0.8-0.1,1.1l-6.1,3.5C278.4,288.6,277.5,288.7,277.1,288.4z"/>
				<path class="st45" d="M267.3,282.7l-6.2-3.6c-0.5-0.3-0.4-0.8,0.1-1.1l6.1-3.5c0.6-0.3,1.4-0.4,1.9-0.1l6.2,3.6
					c0.5,0.3,0.4,0.8-0.1,1.1l-6.1,3.5C268.6,283,267.8,283,267.3,282.7z"/>
				<path class="st45" d="M257.5,277.1l-6.2-3.6c-0.5-0.3-0.4-0.8,0.1-1.1l6.1-3.5c0.6-0.3,1.4-0.4,1.9-0.1l6.2,3.6
					c0.5,0.3,0.4,0.8-0.1,1.1l-6.1,3.5C258.8,277.3,258,277.4,257.5,277.1z"/>
				<path class="st45" d="M247.7,271.4l-6.2-3.6c-0.5-0.3-0.4-0.8,0.1-1.1l6.1-3.5c0.6-0.3,1.4-0.4,1.9-0.1l6.2,3.6
					c0.5,0.3,0.4,0.8-0.1,1.1l-6.1,3.5C249,271.7,248.2,271.7,247.7,271.4z"/>
				<path class="st45" d="M286.6,293.9l-6.2-3.6c-0.5-0.3-0.4-0.8,0.1-1.1l6.1-3.5c0.6-0.3,1.4-0.4,1.9-0.1l6.2,3.6
					c0.5,0.3,0.4,0.8-0.1,1.1l-6.1,3.5C288,294.2,287.1,294.2,286.6,293.9z"/>
				<path class="st45" d="M296.2,299.4l-6.2-3.6c-0.5-0.3-0.4-0.8,0.1-1.1l6.1-3.5c0.6-0.3,1.4-0.4,1.9-0.1l6.2,3.6
					c0.5,0.3,0.4,0.8-0.1,1.1l-6.1,3.5C297.5,299.7,296.7,299.7,296.2,299.4z"/>
				<path class="st45" d="M305.7,304.9l-6.2-3.6c-0.5-0.3-0.4-0.8,0.1-1.1l6.1-3.5c0.6-0.3,1.4-0.4,1.9-0.1l6.2,3.6
					c0.5,0.3,0.4,0.8-0.1,1.1l-6.1,3.5C307.1,305.2,306.2,305.2,305.7,304.9z"/>
				<path class="st45" d="M315.3,310.5l-6.2-3.6c-0.5-0.3-0.4-0.8,0.1-1.1l6.1-3.5c0.6-0.3,1.4-0.4,1.9-0.1l6.2,3.6
					c0.5,0.3,0.4,0.8-0.1,1.1l-6.1,3.5C316.6,310.7,315.8,310.7,315.3,310.5z"/>
				<path class="st45" d="M324.8,316l-6.2-3.6c-0.5-0.3-0.4-0.8,0.1-1.1l6.1-3.5c0.6-0.3,1.4-0.4,1.9-0.1l6.2,3.6
					c0.5,0.3,0.4,0.8-0.1,1.1l-6.1,3.5C326.2,316.2,325.3,316.3,324.8,316z"/>
				<path class="st45" d="M334.4,321.5l-6.2-3.6c-0.5-0.3-0.4-0.8,0.1-1.1l6.1-3.5c0.6-0.3,1.4-0.4,1.9-0.1l6.2,3.6
					c0.5,0.3,0.4,0.8-0.1,1.1l-6.1,3.5C335.8,321.7,334.9,321.8,334.4,321.5z"/>
				<path class="st45" d="M344,327l-6.2-3.6c-0.5-0.3-0.4-0.8,0.1-1.1l6.1-3.5c0.6-0.3,1.4-0.4,1.9-0.1l6.2,3.6
					c0.5,0.3,0.4,0.8-0.1,1.1l-6.1,3.5C345.3,327.3,344.5,327.3,344,327z"/>
				<path class="st45" d="M353.5,332.5l-6.2-3.6c-0.5-0.3-0.4-0.8,0.1-1.1l6.1-3.5c0.6-0.3,1.4-0.4,1.9-0.1l6.2,3.6
					c0.5,0.3,0.4,0.8-0.1,1.1l-6.1,3.5C354.9,332.8,354,332.8,353.5,332.5z"/>
				<path class="st45" d="M363.1,338.1l-6.2-3.6c-0.5-0.3-0.4-0.8,0.1-1.1l6.1-3.5c0.6-0.3,1.4-0.4,1.9-0.1l6.2,3.6
					c0.5,0.3,0.4,0.8-0.1,1.1L365,338C364.4,338.3,363.6,338.3,363.1,338.1z"/>
				<path class="st45" d="M272,274.7l-6.2-3.6c-0.5-0.3-0.4-0.8,0.1-1.1l6.1-3.5c0.6-0.3,1.4-0.4,1.9-0.1l6.2,3.6
					c0.5,0.3,0.4,0.8-0.1,1.1l-6.1,3.5C273.4,275,272.5,275,272,274.7z"/>
				<path class="st45" d="M262.5,269.2l-6.2-3.6c-0.5-0.3-0.4-0.8,0.1-1.1l6.1-3.5c0.6-0.3,1.4-0.4,1.9-0.1l6.2,3.6
					c0.5,0.3,0.4,0.8-0.1,1.1l-6.1,3.5C263.9,269.5,263,269.5,262.5,269.2z"/>
				<path class="st45" d="M253,263.8l-6.2-3.6c-0.5-0.3-0.4-0.8,0.1-1.1l6.1-3.5c0.6-0.3,1.4-0.4,1.9-0.1l6.2,3.6
					c0.5,0.3,0.4,0.8-0.1,1.1l-6.1,3.5C254.4,264,253.5,264,253,263.8z"/>
				<path class="st45" d="M243.5,258.3l-6.2-3.6c-0.5-0.3-0.4-0.8,0.1-1.1l6.1-3.5c0.6-0.3,1.4-0.4,1.9-0.1l6.2,3.6
					c0.5,0.3,0.4,0.8-0.1,1.1l-6.1,3.5C244.9,258.5,244,258.6,243.5,258.3z"/>
				<path class="st45" d="M253.3,252.6l-6.2-3.6c-0.5-0.3-0.4-0.8,0.1-1.1l2-1.2c0.6-0.3,1.4-0.4,1.9-0.1l6.2,3.6
					c0.5,0.3,0.4,0.8-0.1,1.1l-2,1.2C254.6,252.9,253.8,252.9,253.3,252.6z"/>
				<path class="st45" d="M265.7,259.8l-6.2-3.6c-0.5-0.3-0.4-0.8,0.1-1.1l2-1.2c0.6-0.3,1.4-0.4,1.9-0.1l6.2,3.6
					c0.5,0.3,0.4,0.8-0.1,1.1l-2,1.2C267,260,266.2,260.1,265.7,259.8z"/>
				<path class="st45" d="M275.1,265.3l-6.2-3.6c-0.5-0.3-0.4-0.8,0.1-1.1l2-1.2c0.6-0.3,1.4-0.4,1.9-0.1l6.2,3.6
					c0.5,0.3,0.4,0.8-0.1,1.1l-2,1.2C276.5,265.5,275.6,265.5,275.1,265.3z"/>
				<path class="st45" d="M284.6,270.7l-6.2-3.6c-0.5-0.3-0.4-0.8,0.1-1.1l2-1.2c0.6-0.3,1.4-0.4,1.9-0.1l6.2,3.6
					c0.5,0.3,0.4,0.8-0.1,1.1l-2,1.2C286,271,285.1,271,284.6,270.7z"/>
				<path class="st45" d="M294.1,276.2l-6.2-3.6c-0.5-0.3-0.4-0.8,0.1-1.1l2-1.2c0.6-0.3,1.4-0.4,1.9-0.1l6.2,3.6
					c0.5,0.3,0.4,0.8-0.1,1.1l-2,1.2C295.5,276.4,294.6,276.5,294.1,276.2z"/>
				<path class="st45" d="M347,306.7l-6.2-3.6c-0.5-0.3-0.4-0.8,0.1-1.1l2-1.2c0.6-0.3,1.4-0.4,1.9-0.1l6.2,3.6
					c0.5,0.3,0.4,0.8-0.1,1.1l-2,1.2C348.3,307,347.5,307,347,306.7z"/>
				<path class="st45" d="M356.4,312.2l-6.2-3.6c-0.5-0.3-0.4-0.8,0.1-1.1l2-1.2c0.6-0.3,1.4-0.4,1.9-0.1l6.2,3.6
					c0.5,0.3,0.4,0.8-0.1,1.1l-2,1.2C357.8,312.4,356.9,312.5,356.4,312.2z"/>
				<path class="st45" d="M365.9,317.7l-6.2-3.6c-0.5-0.3-0.4-0.8,0.1-1.1l2-1.2c0.6-0.3,1.4-0.4,1.9-0.1l6.2,3.6
					c0.5,0.3,0.4,0.8-0.1,1.1l-2,1.2C367.3,317.9,366.4,317.9,365.9,317.7z"/>
				<path class="st45" d="M375.4,323.1l-6.2-3.6c-0.5-0.3-0.4-0.8,0.1-1.1l2-1.2c0.6-0.3,1.4-0.4,1.9-0.1l6.2,3.6
					c0.5,0.3,0.4,0.8-0.1,1.1l-2,1.2C376.7,323.4,375.9,323.4,375.4,323.1z"/>
				<path class="st45" d="M281.6,280.3l-6.2-3.6c-0.5-0.3-0.4-0.8,0.1-1.1l6.1-3.5c0.6-0.3,1.4-0.4,1.9-0.1l6.2,3.6
					c0.5,0.3,0.4,0.8-0.1,1.1l-6.1,3.5C282.9,280.5,282.1,280.5,281.6,280.3z"/>
				<path class="st45" d="M291.1,285.8l-6.2-3.6c-0.5-0.3-0.4-0.8,0.1-1.1l6.1-3.5c0.6-0.3,1.4-0.4,1.9-0.1l6.2,3.6
					c0.5,0.3,0.4,0.8-0.1,1.1l-6.1,3.5C292.5,286,291.6,286.1,291.1,285.8z"/>
				<path class="st45" d="M300.7,291.3l-6.2-3.6c-0.5-0.3-0.4-0.8,0.1-1.1l6.1-3.5c0.6-0.3,1.4-0.4,1.9-0.1l6.2,3.6
					c0.5,0.3,0.4,0.8-0.1,1.1l-6.1,3.5C302.1,291.5,301.2,291.6,300.7,291.3z"/>
				<path class="st45" d="M310.2,296.8l-6.2-3.6c-0.5-0.3-0.4-0.8,0.1-1.1l6.1-3.5c0.6-0.3,1.4-0.4,1.9-0.1l6.2,3.6
					c0.5,0.3,0.4,0.8-0.1,1.1l-6.1,3.5C311.6,297.1,310.7,297.1,310.2,296.8z"/>
				<path class="st45" d="M319.8,302.3l-6.2-3.6c-0.5-0.3-0.4-0.8,0.1-1.1l6.1-3.5c0.6-0.3,1.4-0.4,1.9-0.1l6.2,3.6
					c0.5,0.3,0.4,0.8-0.1,1.1l-6.1,3.5C321.2,302.6,320.3,302.6,319.8,302.3z"/>
				<path class="st45" d="M329.4,307.8l-6.2-3.6c-0.5-0.3-0.4-0.8,0.1-1.1l6.1-3.5c0.6-0.3,1.4-0.4,1.9-0.1l6.2,3.6
					c0.5,0.3,0.4,0.8-0.1,1.1l-6.1,3.5C330.7,308.1,329.9,308.1,329.4,307.8z"/>
				<path class="st45" d="M338.9,313.4l-6.2-3.6c-0.5-0.3-0.4-0.8,0.1-1.1l6.1-3.5c0.6-0.3,1.4-0.4,1.9-0.1l6.2,3.6
					c0.5,0.3,0.4,0.8-0.1,1.1l-6.1,3.5C340.3,313.6,339.4,313.7,338.9,313.4z"/>
				<path class="st45" d="M348.5,318.9l-6.2-3.6c-0.5-0.3-0.4-0.8,0.1-1.1l6.1-3.5c0.6-0.3,1.4-0.4,1.9-0.1l6.2,3.6
					c0.5,0.3,0.4,0.8-0.1,1.1l-6.1,3.5C349.8,319.1,349,319.2,348.5,318.9z"/>
				<path class="st45" d="M358,324.4l-6.2-3.6c-0.5-0.3-0.4-0.8,0.1-1.1l6.1-3.5c0.6-0.3,1.4-0.4,1.9-0.1l6.2,3.6
					c0.5,0.3,0.4,0.8-0.1,1.1l-6.1,3.5C359.4,324.7,358.5,324.7,358,324.4z"/>
				<path class="st45" d="M226.9,280.9l-18.2-10.5c-0.5-0.3-0.4-0.8,0.1-1.1l6.1-3.5c0.6-0.3,1.4-0.4,1.9-0.1l18.2,10.5
					c0.5,0.3,0.4,0.8-0.1,1.1l-6.1,3.5C228.3,281.2,227.4,281.2,226.9,280.9z"/>
				<path class="st45" d="M344.4,348.7l-18.2-10.5c-0.5-0.3-0.4-0.8,0.1-1.1l6.1-3.5c0.6-0.3,1.4-0.4,1.9-0.1l18.2,10.5
					c0.5,0.3,0.4,0.8-0.1,1.1l-6.1,3.5C345.7,349,344.8,349,344.4,348.7z"/>
				<path class="st45" d="M306.1,338.9l-6.2-3.6c-0.5-0.3-0.4-0.8,0.1-1.1l7.3-4.2c0.6-0.3,1.4-0.4,1.9-0.1l6.2,3.6
					c0.5,0.3,0.4,0.8-0.1,1.1l-7.3,4.2C307.5,339.1,306.6,339.1,306.1,338.9z"/>
				<path class="st45" d="M236.7,298.8l-9.9-5.7c-0.5-0.3-0.4-0.8,0.1-1.1l7.3-4.2c0.6-0.3,1.4-0.4,1.9-0.1l9.9,5.7
					c0.5,0.3,0.4,0.8-0.1,1.1l-7.3,4.2C238.1,299,237.2,299.1,236.7,298.8z"/>
				<path class="st45" d="M296.9,333.5l-9.9-5.7c-0.5-0.3-0.4-0.8,0.1-1.1l7.3-4.2c0.6-0.3,1.4-0.4,1.9-0.1l9.9,5.7
					c0.5,0.3,0.4,0.8-0.1,1.1l-7.3,4.2C298.3,333.8,297.4,333.8,296.9,333.5z"/>
				<path class="st45" d="M250.5,306.7l-9.9-5.7c-0.5-0.3-0.4-0.8,0.1-1.1l7.3-4.2c0.6-0.3,1.4-0.4,1.9-0.1l9.9,5.7
					c0.5,0.3,0.4,0.8-0.1,1.1l-7.3,4.2C251.9,307,251,307,250.5,306.7z"/>
				<path class="st45" d="M250.1,295.6l43,24.8c0.5,0.3,0.5,0.8,0,1.1l-7.4,4.3c-0.5,0.3-1.4,0.3-1.9,0l-43-24.8L250.1,295.6z"/>
				<path class="st45" d="M332.8,348.9l6.9,4c0.4,0.2,0.4,0.6-0.1,0.9l-3,1.7c-0.5,0.3-1.2,0.3-1.6,0.1l-6.9-4
					c-0.4-0.2-0.4-0.6,0.1-0.9l3-1.7C331.7,348.7,332.4,348.6,332.8,348.9z"/>
				<path class="st45" d="M323.2,343.3l6.9,4c0.4,0.2,0.4,0.6-0.1,0.9l-3,1.7c-0.5,0.3-1.2,0.3-1.6,0.1l-6.9-4
					c-0.4-0.2-0.4-0.6,0.1-0.9l3-1.7C322.1,343.1,322.8,343.1,323.2,343.3z"/>
				<path class="st45" d="M313.6,337.8l6.9,4c0.4,0.2,0.4,0.6-0.1,0.9l-3,1.7c-0.5,0.3-1.2,0.3-1.6,0.1l-6.9-4
					c-0.4-0.2-0.4-0.6,0.1-0.9l3-1.7C312.5,337.6,313.2,337.5,313.6,337.8z"/>
				<path class="st45" d="M328.5,340.2l6.9,4c0.4,0.2,0.4,0.6-0.1,0.9l-3,1.7c-0.5,0.3-1.2,0.3-1.6,0.1l-6.9-4
					c-0.4-0.2-0.4-0.6,0.1-0.9l3-1.7C327.4,340,328.1,340,328.5,340.2z"/>
			</g>
		</g>
		<g>
			<path class="st31" d="M426,191.5c-0.5,0-1-0.1-1.4-0.4c-1.5-0.8-2.4-2.8-2-4.3c0.2-0.7,0.6-1.3,1.2-1.5c0.7-0.3,1.5-0.2,2.3,0.2
				c1.5,0.8,2.4,2.8,2,4.3l0,0c-0.2,0.7-0.6,1.3-1.2,1.5C426.6,191.5,426.3,191.5,426,191.5z M424.6,185.8c-0.2,0-0.4,0-0.6,0.1
				c-0.4,0.2-0.7,0.6-0.8,1.1c-0.3,1.2,0.5,2.8,1.7,3.5c0.6,0.3,1.2,0.4,1.7,0.2c0.4-0.2,0.7-0.6,0.8-1.1c0.3-1.2-0.5-2.8-1.7-3.5
				C425.3,185.9,424.9,185.8,424.6,185.8z"/>
			<path class="st31" d="M433.9,196.1c-0.5,0-1-0.1-1.4-0.4c-1.5-0.8-2.4-2.8-2-4.3c0.2-0.7,0.6-1.3,1.2-1.5
				c0.7-0.3,1.5-0.2,2.3,0.2c1.5,0.8,2.4,2.8,2,4.3l0,0c-0.2,0.7-0.6,1.3-1.2,1.5C434.5,196,434.2,196.1,433.9,196.1z M432.5,190.4
				c-0.2,0-0.4,0-0.6,0.1c-0.4,0.2-0.7,0.6-0.8,1.1c-0.3,1.2,0.5,2.8,1.7,3.5c0.6,0.3,1.2,0.4,1.7,0.2c0.4-0.2,0.7-0.6,0.8-1.1
				c0.3-1.2-0.5-2.8-1.7-3.5C433.2,190.5,432.8,190.4,432.5,190.4z"/>
			<path class="st31" d="M443.5,198.9c-0.3,1.4-1.7,1.9-3,1.1c-1.3-0.8-2.2-2.5-1.9-3.9c0.3-1.4,1.7-1.9,3-1.1
				C443,195.7,443.8,197.5,443.5,198.9z"/>
		</g>
		<polygon class="st31" points="292.4,111.9 288.2,109.5 288.5,107.5 292.7,110 		"/>
		<polygon class="st31" points="298.5,115.4 294.3,113 294.6,111.1 298.8,113.5 		"/>
		<polygon class="st31" points="286.3,108.4 277.1,103.1 277.4,101.1 286.7,106.4 		"/>
	</g>
	<ellipse transform="matrix(0.866 -0.5 0.5 0.866 -15.1072 116.657)" class="st46" cx="210.1" cy="86.5" rx="22.2" ry="38.4"/>
	<path class="st14" d="M222.3,121.9c-3.8,0-8-1.3-12.3-3.8c-15.1-8.7-27.3-29.9-27.3-47.3c0-8.5,2.9-14.8,8.1-17.9
		c5.2-3,12.2-2.3,19.5,1.9c15.1,8.7,27.3,29.9,27.3,47.3c0,8.5-2.9,14.8-8.1,17.9C227.4,121.2,224.9,121.9,222.3,121.9z M198,51.7
		c-2.5,0-4.9,0.6-6.9,1.8c-5,2.9-7.8,9-7.8,17.3c0,17.2,12.1,38.2,27,46.8c7.2,4.1,13.9,4.8,18.9,1.9s7.8-9,7.8-17.3
		c0-17.2-12.1-38.2-27-46.8C205.7,52.9,201.7,51.7,198,51.7z"/>
	<path class="st14" d="M207.1,130.4c-3.8,0-8-1.3-12.3-3.8c-15.1-8.7-27.3-29.9-27.3-47.3c0-8.5,2.9-14.8,8.1-17.9
		c5.2-3,12.2-2.3,19.5,1.9c15.1,8.7,27.3,29.9,27.3,47.3c0,8.5-2.9,14.8-8.1,17.9C212.2,129.8,209.8,130.4,207.1,130.4z M182.9,60.2
		c-2.5,0-4.9,0.6-6.9,1.8c-5,2.9-7.8,9-7.8,17.3c0,17.2,12.1,38.2,27,46.8c7.2,4.1,13.9,4.8,18.9,1.9s7.8-9,7.8-17.3
		c0-17.2-12.1-38.2-27-46.8C190.6,61.5,186.5,60.2,182.9,60.2z"/>
	<g>
		<g>
			
				<linearGradient id="SVGID_33_" gradientUnits="userSpaceOnUse" x1="-25.3854" y1="-203.4129" x2="2.1135" y2="-203.4129" gradientTransform="matrix(0.9996 2.750000e-02 2.750000e-02 -0.9996 173.5147 -24.5752)">
				<stop  offset="0" style="stop-color:#2692C7"/>
				<stop  offset="0.3076" style="stop-color:#2692C7"/>
				<stop  offset="0.5949" style="stop-color:#0063A9"/>
				<stop  offset="0.8355" style="stop-color:#0063A9"/>
				<stop  offset="1" style="stop-color:#16365E"/>
			</linearGradient>
			<path class="st47" d="M161.7,197.3v-7.9l9.3-47l-9.2-5.7L143.4,147l-0.1,60.5c0,4.1,1.5,6.8,3.9,7.7l0,0l8.2,5.1l1-3.9l1.4-7.1
				C160.2,205.9,161.7,201.4,161.7,197.3z"/>
			
				<linearGradient id="SVGID_34_" gradientUnits="userSpaceOnUse" x1="-74.307" y1="-206.6137" x2="13.0055" y2="-206.6137" gradientTransform="matrix(0.9996 2.750000e-02 2.750000e-02 -0.9996 173.5147 -24.5752)">
				<stop  offset="0" style="stop-color:#2692C7"/>
				<stop  offset="0.3076" style="stop-color:#2692C7"/>
				<stop  offset="0.5949" style="stop-color:#0063A9"/>
				<stop  offset="0.8355" style="stop-color:#0063A9"/>
				<stop  offset="1" style="stop-color:#16365E"/>
			</linearGradient>
			<path class="st48" d="M161.7,220.2L161.7,220.2c-5.1,2.8-9.2-0.3-9.2-7l0.1-60.5l18.4-10.2l-0.1,60.5
				C170.9,209.7,166.8,217.4,161.7,220.2z"/>
		</g>
		
			<linearGradient id="SVGID_35_" gradientUnits="userSpaceOnUse" x1="144.7" y1="318.2839" x2="150.8689" y2="318.2839" gradientTransform="matrix(1 0 0 -1 0 506.6141)">
			<stop  offset="0" style="stop-color:#BCBEFF"/>
			<stop  offset="0.2271" style="stop-color:#AAADF8"/>
			<stop  offset="0.6802" style="stop-color:#7C83E5"/>
			<stop  offset="1" style="stop-color:#5761D7"/>
		</linearGradient>
		<path class="st49" d="M148.6,179.1l-0.3-0.2c-0.6-0.3-1.1-0.3-1.5-0.1l0,0l-2.1,1.2l1.4,0.3c0,0.1,0,0.2,0,0.2v11.7
			c0,1.6,1,3.5,2.2,4.2l-0.4,1.6l2.1-1.2l0,0c0.5-0.2,0.9-0.9,0.8-1.8v-11.7C150.8,181.6,149.8,179.7,148.6,179.1z"/>
		<path class="st16" d="M148.6,179.1l-0.3-0.2c-0.6-0.3-1.1-0.3-1.5-0.1l0,0l-2.1,1.2l1.4,0.3c0,0.1,0,0.2,0,0.2v11.7
			c0,1.6,1,3.5,2.2,4.2l-0.4,1.6l2.1-1.2l0,0c0.5-0.2,0.9-0.9,0.8-1.8v-11.7C150.8,181.6,149.8,179.7,148.6,179.1z"/>
		<g>
			<path class="st3" d="M146.5,197.8l-0.3-0.2c-1.2-0.7-2.2-2.6-2.2-4.2v-11.7c0-1.6,1-2.4,2.2-1.7l0.3,0.2c1.2,0.7,2.2,2.6,2.2,4.2
				v11.7C148.7,197.8,147.7,198.5,146.5,197.8z"/>
		</g>
		<g>
			<path class="st16" d="M161.7,220.2L161.7,220.2c5.1-2.8,9.2-10.5,9.2-17.2l0.1-50.6v-7l-8.8,1.9l-8.5,4.7l-1.8-2.2l-7.9,2.9
				l-0.7,16v0.4c0.1,4.9,3.6,9,8.4,9.8l0.9,0.2v34.1C152.5,219.9,156.6,223,161.7,220.2z"/>
			
				<linearGradient id="SVGID_36_" gradientUnits="userSpaceOnUse" x1="-49.7495" y1="-139.2976" x2="33.6847" y2="-139.2976" gradientTransform="matrix(0.9996 2.750000e-02 2.750000e-02 -0.9996 173.5147 -24.5752)">
				<stop  offset="0" style="stop-color:#73B9DB"/>
				<stop  offset="0.2938" style="stop-color:#89C4E0"/>
				<stop  offset="0.6399" style="stop-color:#C4E1F0"/>
				<stop  offset="1" style="stop-color:#F7FBFD"/>
			</linearGradient>
			<path class="st50" d="M203.3,117.6c0.4-15.2-9.7-34-22.7-41.9c-6.9-4.2-13.2-4.6-17.7-1.6l0,0l-42.5,23l31.5,59.6l43.7-23.7
				c0.2-0.1,0.3-0.2,0.5-0.3l0.2-0.1l0,0C200.4,130.1,203.1,124.9,203.3,117.6z"/>
			<linearGradient id="SVGID_37_" gradientUnits="userSpaceOnUse" x1="134.3" y1="123.2499" x2="203.3084" y2="123.2499">
				<stop  offset="0" style="stop-color:#2692C7"/>
				<stop  offset="0.3076" style="stop-color:#2692C7"/>
				<stop  offset="0.5949" style="stop-color:#0063A9"/>
				<stop  offset="0.8355" style="stop-color:#0063A9"/>
				<stop  offset="1" style="stop-color:#16365E"/>
			</linearGradient>
			<path class="st51" d="M203.3,117.6c0.2-9-3.2-19.3-8.8-27.8c-6.3,3.6-19.1,10.8-43.2,24.5c-6.1,3.4-11.7,6.4-17,9l17.6,33.4
				l43.7-23.7c0.2-0.1,0.3-0.2,0.5-0.3l0.2-0.1l0,0C200.4,130.1,203.1,124.9,203.3,117.6z"/>
			
				<radialGradient id="SVGID_38_" cx="413.9287" cy="1515.345" r="27.5168" gradientTransform="matrix(0.8519 0.5236 2.750000e-02 -0.9996 -258.1479 1424.9056)" gradientUnits="userSpaceOnUse">
				<stop  offset="0" style="stop-color:#F9636B"/>
				<stop  offset="1" style="stop-color:#B6246E"/>
			</radialGradient>
			<path class="st52" d="M159.6,141.3c-0.4,15.2-11.3,21.1-24.2,13.1c-13-8-23.1-26.7-22.7-41.9s11.3-21.1,24.2-13.1
				C149.8,107.3,160,126.1,159.6,141.3z"/>
		</g>
		<g>
			
				<linearGradient id="SVGID_39_" gradientUnits="userSpaceOnUse" x1="-86.9715" y1="-116.899" x2="-39.8189" y2="-211.2828" gradientTransform="matrix(0.9996 2.750000e-02 2.750000e-02 -0.9996 173.5147 -24.5752)">
				<stop  offset="0" style="stop-color:#2692C7"/>
				<stop  offset="0.3076" style="stop-color:#2692C7"/>
				<stop  offset="0.5949" style="stop-color:#0063A9"/>
				<stop  offset="0.8355" style="stop-color:#0063A9"/>
				<stop  offset="1" style="stop-color:#16365E"/>
			</linearGradient>
			<path class="st53" d="M160,142.2c0.4-15.8-10.1-35.3-23.6-43.6c-6.1-3.8-11.8-4.5-16.2-2.8l0,0h-0.1c0,0-0.1,0-0.1,0.1
				c-0.2,0.1-0.4,0.2-0.6,0.3C93.2,108.2,69.7,107,41,105l-8.1-0.5l63.3,115.6l3.8-6.9c13.8-25,28.3-39.6,52.3-55.2
				C156.8,155.7,159.7,150.2,160,142.2z"/>
			<path class="st16" d="M99.9,213.3c13.8-25,28.3-39.6,52.3-55.2c4.6-2.4,7.6-7.9,7.8-15.9c0.2-9.1-3.1-19.3-8.6-28
				c0,0-0.1,0-0.1,0.1c-39.7,22.5-63.5,26.2-63.5,26.2l-11,35.1l3.4,15.5l15.9,29.1L99.9,213.3z"/>
			
				<linearGradient id="SVGID_40_" gradientUnits="userSpaceOnUse" x1="25.2202" y1="385.5358" x2="95.4864" y2="288.9749" gradientTransform="matrix(1 0 0 -1 0 506.6141)">
				<stop  offset="0" style="stop-color:#2692C7"/>
				<stop  offset="0.3076" style="stop-color:#2692C7"/>
				<stop  offset="0.5949" style="stop-color:#0063A9"/>
				<stop  offset="0.8355" style="stop-color:#0063A9"/>
				<stop  offset="1" style="stop-color:#16365E"/>
			</linearGradient>
			<path class="st54" d="M104.5,194.6c0.8-30.3-19.4-67.7-45.2-83.6c-12.9-7.9-24.7-9-33.4-4.3l0,0l0,0c0,0,0,0-0.1,0l-7.9,4.4
				l2.7-0.5c-5.7,5.6-9.2,14.6-9.5,26.5c-0.8,30.3,19.4,67.7,45.2,83.6c10.1,6.2,19.6,8.2,27.4,6.5l-1.3,1.8l7.3-4
				c0,0,0.1,0,0.1-0.1l0.3-0.1l0,0C98.6,220,104.1,209.6,104.5,194.6z"/>
			<path class="st3" d="M98.9,197.7c0.8-30.3-19.4-67.7-45.2-83.6c-12.7-7.8-24.4-8.9-33.1-4.5l-1.2,0.7c-0.4,0.2-0.8,0.5-1.2,0.8
				l2.4-0.4c-5.7,5.6-9.2,14.6-9.5,26.5c-0.8,30.3,19.4,67.7,45.2,83.6c10.1,6.2,19.6,8.2,27.4,6.5l-1.2,1.6
				C92.2,224.6,98.4,213.7,98.9,197.7z"/>
			
				<linearGradient id="SVGID_41_" gradientUnits="userSpaceOnUse" x1="-165.098" y1="-197.7375" x2="-70.0499" y2="-197.7375" gradientTransform="matrix(0.9996 2.750000e-02 2.750000e-02 -0.9996 173.5147 -24.5752)">
				<stop  offset="0" style="stop-color:#73B9DB"/>
				<stop  offset="0.2938" style="stop-color:#89C4E0"/>
				<stop  offset="0.6399" style="stop-color:#C4E1F0"/>
				<stop  offset="1" style="stop-color:#F7FBFD"/>
			</linearGradient>
			<path class="st55" d="M97.3,198.6c-0.8,30.3-22.4,42-48.2,26.1C23.2,208.8,3,171.4,3.8,141.1S26.2,99.1,52,115
				C77.9,130.9,98.1,168.3,97.3,198.6z"/>
			
				<linearGradient id="SVGID_42_" gradientUnits="userSpaceOnUse" x1="-159.301" y1="-197.7964" x2="-75.8441" y2="-197.7964" gradientTransform="matrix(0.9996 2.750000e-02 2.750000e-02 -0.9996 173.5147 -24.5752)">
				<stop  offset="0" style="stop-color:#73B9DB"/>
				<stop  offset="0.2938" style="stop-color:#89C4E0"/>
				<stop  offset="0.6399" style="stop-color:#C4E1F0"/>
				<stop  offset="1" style="stop-color:#F7FBFD"/>
			</linearGradient>
			<path class="st56" d="M91.6,195.1c-0.7,26.6-19.7,36.8-42.3,22.9S8.8,171.2,9.5,144.7s19.7-36.8,42.3-22.9
				C74.5,135.7,92.3,168.5,91.6,195.1z"/>
			<path class="st57" d="M56.5,214.5c-3.4-2.1-6.7-4.6-9.8-7.5c-6.5-6-7-16.1-1.1-22.7c7-7.8,18.3-18.2,35.6-29.4
				c-7.2-13.8-17.6-26.1-29.3-33.3c-10-6.1-19.2-7.6-26.5-5c0,0,0,0-0.1,0c-0.3,0.1-0.5,0.2-0.8,0.3c0,0-0.1,0-0.1,0.1
				c-0.2,0.1-0.5,0.2-0.7,0.3c0,0-0.1,0-0.1,0.1c-0.3,0.1-0.5,0.3-0.8,0.4c0,0,0,0-0.1,0c-0.6,0.3-1.1,0.6-1.7,1l0,0
				c-0.2,0.2-0.5,0.3-0.7,0.5l-0.1,0.1c-0.2,0.2-0.4,0.3-0.6,0.5l-0.1,0.1c-0.2,0.2-0.4,0.3-0.6,0.5l-0.1,0.1
				c-0.5,0.4-0.9,0.9-1.4,1.4c0,0,0,0-0.1,0.1c-0.2,0.2-0.4,0.4-0.6,0.7c0,0.1-0.1,0.1-0.1,0.2c-0.2,0.2-0.3,0.4-0.5,0.6
				c-0.1,0.1-0.1,0.1-0.2,0.2c-0.2,0.2-0.3,0.4-0.5,0.6c0,0.1-0.1,0.1-0.1,0.2c-0.2,0.3-0.4,0.5-0.5,0.8l0,0
				c-0.2,0.3-0.4,0.6-0.5,0.9c0,0,0,0.1-0.1,0.1c-0.1,0.3-0.3,0.5-0.4,0.8c0,0.1-0.1,0.2-0.1,0.3c-0.1,0.2-0.2,0.5-0.3,0.7
				c0,0.1-0.1,0.2-0.1,0.3c-0.1,0.2-0.2,0.5-0.3,0.7c0,0.1-0.1,0.2-0.1,0.3c-0.1,0.3-0.2,0.5-0.3,0.8c0,0.1-0.1,0.1-0.1,0.2
				c-0.1,0.3-0.3,0.7-0.4,1.1v0.1c-0.1,0.3-0.2,0.6-0.3,0.9c0,0.1-0.1,0.2-0.1,0.3c-0.1,0.3-0.2,0.5-0.2,0.8c0,0.1-0.1,0.3-0.1,0.4
				c-0.1,0.3-0.1,0.5-0.2,0.8c0,0.1-0.1,0.3-0.1,0.4c-0.1,0.3-0.1,0.6-0.2,0.9c0,0.1,0,0.2-0.1,0.3c-0.1,0.4-0.2,0.8-0.2,1.2v0.1
				c-0.1,0.4-0.1,0.7-0.2,1.1c0,0.1,0,0.3-0.1,0.4c0,0.3-0.1,0.6-0.1,0.9c0,0.2,0,0.3-0.1,0.5c0,0.3-0.1,0.6-0.1,0.8s0,0.3,0,0.5
				c0,0.3,0,0.6-0.1,0.9c0,0.1,0,0.3,0,0.4c0,0.4,0,0.9-0.1,1.4c0,0.7,0,1.5,0,2.3c0,0.3,0,0.5,0,0.8c0,0.5,0,1,0.1,1.5
				c0,0.3,0,0.5,0,0.8c0,0.6,0.1,1.2,0.1,1.8c0,0.2,0,0.4,0,0.6c0.1,0.7,0.2,1.5,0.3,2.2c0,0.3,0.1,0.6,0.1,0.9
				c0.1,0.5,0.1,0.9,0.2,1.4c0.1,0.4,0.1,0.7,0.2,1.1c0.1,0.4,0.2,0.8,0.2,1.3c0.1,0.4,0.1,0.7,0.2,1.1c0.1,0.6,0.3,1.2,0.4,1.8
				c0.1,0.5,0.3,1.1,0.4,1.6c0.1,0.3,0.2,0.6,0.2,0.9c0.1,0.5,0.3,1,0.4,1.4c0.1,0.3,0.1,0.5,0.2,0.8c0.5,1.8,1.1,3.6,1.8,5.4
				c0,0.1,0.1,0.2,0.1,0.3c0.2,0.6,0.4,1.2,0.6,1.7c0.1,0.1,0.1,0.3,0.2,0.4c6.9,17.7,19.4,34.3,33.9,43.2c12.6,7.8,24.1,8,31.9,2.1
				C74.1,221.8,65.6,220.2,56.5,214.5z"/>
			<g>
				<g>
					<defs>
						
							<ellipse id="SVGID_43_" transform="matrix(0.8794 -0.476 0.476 0.8794 -74.7892 44.5328)" cx="50.5" cy="169.9" rx="34" ry="59"/>
					</defs>
					<clipPath id="SVGID_44_">
						<use xlink:href="#SVGID_43_"  style="overflow:visible;"/>
					</clipPath>
					<g class="st58">
						
							<linearGradient id="SVGID_45_" gradientUnits="userSpaceOnUse" x1="44.6" y1="359.0142" x2="122" y2="359.0142" gradientTransform="matrix(1 0 0 -1 8.143545e-06 506.6141)">
							<stop  offset="0" style="stop-color:#E9E9FD"/>
							<stop  offset="0.3601" style="stop-color:#D3D2F9"/>
							<stop  offset="0.7062" style="stop-color:#C5C4F7"/>
							<stop  offset="1" style="stop-color:#C0BFF6"/>
						</linearGradient>
						<polygon class="st59" points="44.6,159.7 106.3,114.7 122,159.9 55.5,180.5 						"/>
						
							<radialGradient id="SVGID_46_" cx="28.3272" cy="352.7511" r="61.9163" gradientTransform="matrix(1 0 0 -1 8.143545e-06 506.6141)" gradientUnits="userSpaceOnUse">
							<stop  offset="0" style="stop-color:#BCBEFF"/>
							<stop  offset="0.2271" style="stop-color:#AAADF8"/>
							<stop  offset="0.6802" style="stop-color:#7C83E5"/>
							<stop  offset="1" style="stop-color:#5761D7"/>
						</radialGradient>
						<path class="st60" d="M58.7,174.9c-0.1,5.3-3.9,7.4-8.5,4.6s-8.1-9.3-7.9-14.6c0.1-5.3,3.9-7.4,8.5-4.6
							C55.3,163,58.9,169.6,58.7,174.9z"/>
						<g class="st1">
							<path class="st24" d="M64.7,150.1c5.9,3.6,10.5,12.2,10.4,19.1c-0.1,2.6-0.8,4.6-2,5.9l50.3-14.3L107.2,114l-47.3,34.6
								C61.3,148.5,63,149.1,64.7,150.1z"/>
						</g>
					</g>
				</g>
			</g>
		</g>
	</g>
	<g>
		<g>
			<path class="st31" d="M425.7,281.1l-14.5-8.1c-3.2-1.8-6.1-5.8-7.1-10l-12.6-52c-1.5-6.2-6.5-10.6-10-10.7c-0.1,0-0.1,0-0.2,0
				c-1.7,0-2.9,1-3.5,2.8l-3.8,11.6c-0.4,1.3-1.3,2.3-2.4,2.7c-1.3,0.5-3,0.2-4.8-0.8l-2.6-1.5c-3-1.7-5.8-5.5-6.9-9.4
				c-1.7-6-6.3-10-9.6-10.2c-0.1,0-0.3,0-0.4,0c-1.5,0-2.6,0.7-3.3,2.2l-4.2,8.8c-0.5,1.1-1.3,1.8-2.3,2.1c-1.3,0.4-2.9,0.1-4.6-0.8
				l-3-1.7c-3.3-1.9-6.1-6-7.1-10.1l-12.6-56.1c-1.4-6.2-6.3-10.7-9.9-11c-1.8-0.1-3.1,0.8-3.7,2.6l-20.4,55.8
				c-0.5,1.3-1.3,2.1-2.4,2.5c-1.3,0.5-3,0.2-4.7-0.8l-10.3-6l0.1-0.2l10.3,6c1.6,0.9,3.2,1.2,4.5,0.8c1-0.4,1.8-1.2,2.2-2.4
				l20.4-55.8c0.7-1.8,2-2.8,3.7-2.8c0.1,0,0.2,0,0.3,0c3.7,0.2,8.7,4.9,10.1,11.2l12.6,56.1c0.9,4,3.8,8.1,6.9,10l3,1.7
				c1.6,0.9,3.1,1.2,4.3,0.8c0.9-0.3,1.7-1,2.2-2l4.2-8.8c0.8-1.6,2.2-2.5,3.9-2.3c3.4,0.3,8.1,4.4,9.8,10.4
				c1.1,3.8,3.8,7.5,6.7,9.3l2.6,1.5c1.7,1,3.3,1.2,4.6,0.7c1-0.4,1.8-1.3,2.2-2.5l3.8-11.6c0.6-2,2-3.1,3.9-3
				c3.7,0.1,8.7,4.6,10.2,10.9l12.6,52c1,4.1,3.8,8,7,9.8l14.5,8.1L425.7,281.1z"/>
			<path class="st31" d="M414.7,287.4l-14.5-8.1c-3.2-1.8-6.1-5.8-7.1-10l-12.6-52c-1.5-6.2-6.5-10.6-10-10.7
				c-1.8-0.1-3,0.9-3.7,2.8L363,221c-0.4,1.3-1.3,2.3-2.4,2.7c-1.3,0.5-3,0.2-4.8-0.8l-2.6-1.5c-3-1.7-5.8-5.5-6.9-9.4
				c-1.7-6-6.3-10-9.6-10.2c-1.7-0.1-2.9,0.6-3.7,2.2l-4.2,8.8c-0.5,1.1-1.3,1.8-2.3,2.1c-1.3,0.4-2.9,0.1-4.6-0.8l-3-1.7
				c-3.3-1.9-6.1-6-7.1-10.1l-12.6-56.1c-1.4-6.2-6.3-10.7-9.9-11c-1.8-0.1-3.1,0.8-3.7,2.6l-20.4,55.8c-0.5,1.3-1.3,2.1-2.4,2.5
				c-1.3,0.5-3,0.2-4.7-0.8l-10.3-6l0.1-0.2l10.3,6c1.6,0.9,3.2,1.2,4.5,0.8c1-0.4,1.8-1.2,2.2-2.4l20.4-55.8c0.7-1.9,2.1-2.9,4-2.8
				c3.7,0.2,8.7,4.9,10.1,11.2l12.6,56.1c0.9,4,3.8,8.1,6.9,10l3,1.7c1.6,0.9,3.1,1.2,4.3,0.8c0.9-0.3,1.7-1,2.2-2l4.2-8.8
				c0.8-1.6,2.1-2.5,3.9-2.3c3.4,0.3,8.1,4.4,9.8,10.4c1.1,3.8,3.8,7.5,6.7,9.3l2.6,1.5c1.7,1,3.3,1.2,4.6,0.7
				c1-0.4,1.8-1.3,2.2-2.5l3.8-11.6c0.6-1.9,2-3,3.7-3c0.1,0,0.1,0,0.2,0c3.7,0.1,8.7,4.6,10.2,10.9l12.6,52c1,4.1,3.8,8,7,9.8
				l14.5,8.1L414.7,287.4z"/>
			
				<rect x="286.6" y="131.9" transform="matrix(0.8673 -0.4977 0.4977 0.8673 -26.9546 163.3695)" class="st31" width="12.8" height="0.7"/>
			
				<rect x="333.4" y="198.7" transform="matrix(0.8667 -0.4988 0.4988 0.8667 -53.9821 196.0679)" class="st31" width="13" height="0.7"/>
			
				<rect x="367.3" y="203.4" transform="matrix(0.8674 -0.4976 0.4976 0.8674 -51.7973 213.1415)" class="st31" width="13.5" height="0.7"/>
			<path class="st31" d="M425.6,281.2l-14.5-8.1c-3.3-1.8-6.2-5.9-7.2-10.1l-12.6-52c-1.5-6.1-6.3-10.5-9.8-10.6
				c-1.7-0.1-2.9,0.9-3.5,2.7l-3.8,11.6c-0.5,1.4-1.3,2.4-2.5,2.8c-1.4,0.5-3.2,0.3-4.9-0.8l-2.6-1.5c-3.1-1.8-5.9-5.5-7-9.5
				c-1.6-5.9-6.2-9.8-9.4-10.1c-1.6-0.1-2.8,0.6-3.5,2l-4.2,8.8c-0.5,1.1-1.4,1.9-2.4,2.2c-1.4,0.4-3,0.1-4.7-0.8l-3-1.7
				c-3.3-1.9-6.2-6-7.1-10.3l-12.6-56.1c-1.4-6.1-6.2-10.6-9.7-10.8c-1.7-0.1-2.9,0.7-3.5,2.5l-20.4,55.8c-0.5,1.3-1.3,2.2-2.5,2.6
				c-1.4,0.5-3.1,0.2-4.9-0.8l-10.3-6l0.3-0.6l10.3,6c1.6,0.9,3.1,1.2,4.3,0.7c1-0.3,1.7-1.1,2.1-2.2l20.4-55.8c0.7-2,2.2-3,4.2-2.9
				c3.8,0.2,8.9,4.9,10.3,11.3l12.6,56.1c0.9,4,3.7,8,6.8,9.8l3,1.7c1.5,0.9,3,1.2,4.2,0.8c0.9-0.3,1.6-0.9,2-1.9l4.2-8.8
				c0.8-1.7,2.3-2.6,4.1-2.4c3.5,0.3,8.3,4.4,10,10.6c1.1,3.8,3.7,7.4,6.7,9.1l2.6,1.5c1.6,0.9,3.2,1.2,4.4,0.7
				c1-0.4,1.7-1.2,2.1-2.4l3.8-11.6c0.7-2.1,2.2-3.2,4.1-3.1c3.8,0.1,8.8,4.6,10.4,11.1l12.6,52c1,4,3.8,7.9,6.9,9.7l14.5,8.1
				L425.6,281.2z"/>
			<path class="st31" d="M414.6,287.6l-14.5-8.1c-3.3-1.8-6.2-5.9-7.2-10.1l-12.6-52c-1.5-6.1-6.3-10.5-9.8-10.6
				c-1.7-0.1-2.9,0.9-3.5,2.7l-3.8,11.6c-0.5,1.4-1.3,2.4-2.5,2.8c-1.4,0.5-3.2,0.3-4.9-0.8l-2.6-1.5c-3.1-1.8-5.9-5.5-7-9.5
				c-1.6-5.9-6.2-9.8-9.4-10.1c-1.6-0.1-2.8,0.6-3.5,2l-4.2,8.8c-0.5,1.1-1.4,1.9-2.5,2.2c-1.4,0.4-3,0.1-4.7-0.8l-3-1.7
				c-3.3-1.9-6.2-6-7.1-10.3l-12.6-56.1c-1.4-6.1-6.2-10.6-9.7-10.8c-1.7-0.1-2.9,0.7-3.5,2.5l-20.4,55.8c-0.5,1.3-1.3,2.2-2.5,2.6
				c-1.4,0.5-3.1,0.2-4.9-0.8l-10.3-6l0.3-0.6l10.3,6c1.6,0.9,3.1,1.2,4.3,0.7c1-0.3,1.7-1.1,2.1-2.2l20.4-55.8c0.7-2,2.2-3,4.2-2.9
				c3.8,0.2,8.9,4.9,10.3,11.3l12.6,56.1c0.9,4,3.7,8,6.8,9.8l3,1.7c1.5,0.9,3,1.2,4.2,0.8c0.9-0.3,1.6-0.9,2-1.9l4.2-8.8
				c0.8-1.7,2.3-2.6,4.1-2.4c3.5,0.3,8.3,4.4,10,10.6c1.1,3.8,3.7,7.4,6.7,9.1l2.6,1.5c1.6,0.9,3.2,1.2,4.4,0.7
				c1-0.4,1.7-1.2,2.1-2.4l3.8-11.6c0.7-2,2-3.1,3.9-3.1c0.1,0,0.1,0,0.2,0c3.8,0.1,8.8,4.6,10.4,11.1l12.6,52c1,4,3.8,7.9,6.9,9.7
				l14.5,8.1L414.6,287.6z"/>
		</g>
		
			<linearGradient id="SVGID_47_" gradientUnits="userSpaceOnUse" x1="286.3683" y1="347.4669" x2="488.8022" y2="226.7341" gradientTransform="matrix(1 0 0 -1 0 506.6141)">
			<stop  offset="0" style="stop-color:#42E8E0"/>
			<stop  offset="0.1055" style="stop-color:#37B6BF"/>
			<stop  offset="0.2197" style="stop-color:#2C87A1"/>
			<stop  offset="0.338" style="stop-color:#235F87"/>
			<stop  offset="0.4587" style="stop-color:#1C3F72"/>
			<stop  offset="0.5824" style="stop-color:#162561"/>
			<stop  offset="0.7105" style="stop-color:#121355"/>
			<stop  offset="0.8458" style="stop-color:#10084E"/>
			<stop  offset="1" style="stop-color:#0F054C"/>
		</linearGradient>
		<path class="st61" d="M259.2,182.8l10.3,6c3.1,1.8,5.9,1.1,6.9-1.7l20.4-55.8c2.3-6.4,11.9-0.6,13.9,8.4l12.6,56.1
			c0.9,4.1,3.8,8.2,7,10.1l3,1.7c2.9,1.7,5.6,1.2,6.7-1.2l4.2-8.8c2.6-5.5,11.2-0.3,13.5,8.1l0,0c1.1,3.9,3.8,7.6,6.8,9.3l2.6,1.5
			c3.2,1.8,6,1.1,7-1.9l3.8-11.6c2.1-6.6,11.7-1.1,13.9,8l12.6,52c1,4.1,3.8,8.1,7,9.9l14.5,8.1L259.2,182.8z"/>
		
			<linearGradient id="SVGID_48_" gradientUnits="userSpaceOnUse" x1="275.3258" y1="341.2311" x2="418.3956" y2="255.8581" gradientTransform="matrix(1 0 0 -1 0 506.6141)">
			<stop  offset="0" style="stop-color:#42E8E0"/>
			<stop  offset="0.1055" style="stop-color:#37B6BF"/>
			<stop  offset="0.2197" style="stop-color:#2C87A1"/>
			<stop  offset="0.338" style="stop-color:#235F87"/>
			<stop  offset="0.4587" style="stop-color:#1C3F72"/>
			<stop  offset="0.5824" style="stop-color:#162561"/>
			<stop  offset="0.7105" style="stop-color:#121355"/>
			<stop  offset="0.8458" style="stop-color:#10084E"/>
			<stop  offset="1" style="stop-color:#0F054C"/>
		</linearGradient>
		<path class="st62" d="M248.1,189l10.3,6c3.1,1.8,5.9,1.1,6.9-1.7l20.4-55.8c2.3-6.4,11.9-0.6,13.9,8.4l12.6,56.1
			c0.9,4.1,3.8,8.2,7,10.1l3,1.7c2.9,1.7,5.6,1.2,6.7-1.2l4.2-8.8c2.6-5.5,11.2-0.3,13.5,8.1l0,0c1.1,3.9,3.8,7.6,6.8,9.3l2.6,1.5
			c3.2,1.8,6,1.1,7-1.9l3.8-11.6c2.1-6.6,11.7-1.1,13.9,8l12.6,52c1,4.1,3.8,8.1,7,9.9l14.5,8.1L248.1,189z"/>
	</g>
	<ellipse transform="matrix(0.8794 -0.476 0.476 0.8794 -74.789 44.5328)" class="st27" cx="50.5" cy="169.9" rx="34.1" ry="59.1"/>
	<path class="st14" d="M474.5,151c-16.5,0-33-3.6-45.6-10.9c-12.3-7.1-19.1-16.5-19.1-26.6s6.7-19.6,19-26.7
		c25.3-14.6,66.4-14.7,91.7-0.2l0,0c12.3,7.1,19.1,16.5,19.1,26.6s-6.7,19.6-19,26.7C507.9,147.3,491.2,151,474.5,151z M474.8,76.4
		c-16.6,0-33.1,3.7-45.7,11c-12.1,7-18.7,16.3-18.7,26.1s6.7,19.1,18.8,26c25.1,14.4,66,14.4,91-0.2c12.1-7,18.7-16.3,18.7-26.1
		s-6.7-19.1-18.8-26l0,0C507.6,80,491.2,76.4,474.8,76.4z"/>
	<g>
		<g>
			
				<linearGradient id="SVGID_49_" gradientUnits="userSpaceOnUse" x1="-7932.2949" y1="7216.9785" x2="-7919.8223" y2="7216.9785" gradientTransform="matrix(-1.900000e-03 -1 0.9989 -0.5792 -6830.1992 -3700.761)">
				<stop  offset="0" style="stop-color:#5761D7"/>
				<stop  offset="0.1645" style="stop-color:#5E67DA"/>
				<stop  offset="0.4051" style="stop-color:#727AE2"/>
				<stop  offset="0.6924" style="stop-color:#9297EE"/>
				<stop  offset="1" style="stop-color:#BCBEFF"/>
			</linearGradient>
			<path class="st63" d="M393.9,39c3-1.7,5.4-0.3,5.4,3.1c0,3.4-2.4,7.6-5.4,9.4c-3,1.7-5.4,0.3-5.4-3.1
				C388.5,44.9,390.9,40.7,393.9,39z"/>
			<path class="st3" d="M394.2,39.2c-3,1.7-5.4,5.9-5.4,9.4c0,1.6,0.5,2.8,1.4,3.4c-1.1-0.5-1.8-1.8-1.8-3.6c0-3.4,2.4-7.6,5.4-9.4
				c1.6-0.9,3-0.9,4-0.3C396.9,38.2,395.6,38.4,394.2,39.2z"/>
			
				<linearGradient id="SVGID_50_" gradientUnits="userSpaceOnUse" x1="-7917.4648" y1="7204.0928" x2="-7904.9922" y2="7204.0928" gradientTransform="matrix(-1.900000e-03 -1 0.9989 -0.5792 -6830.1992 -3700.761)">
				<stop  offset="0" style="stop-color:#5761D7"/>
				<stop  offset="0.1645" style="stop-color:#5E67DA"/>
				<stop  offset="0.4051" style="stop-color:#727AE2"/>
				<stop  offset="0.6924" style="stop-color:#9297EE"/>
				<stop  offset="1" style="stop-color:#BCBEFF"/>
			</linearGradient>
			<path class="st64" d="M381,31.6c3-1.7,5.4-0.3,5.4,3.1s-2.4,7.6-5.4,9.4c-3,1.7-5.4,0.3-5.4-3.1C375.6,37.5,378.1,33.3,381,31.6z
				"/>
			
				<linearGradient id="SVGID_51_" gradientUnits="userSpaceOnUse" x1="-7902.3677" y1="7191.0068" x2="-7889.895" y2="7191.0068" gradientTransform="matrix(-1.900000e-03 -1 0.9989 -0.5792 -6830.1992 -3700.761)">
				<stop  offset="0" style="stop-color:#5761D7"/>
				<stop  offset="0.1645" style="stop-color:#5E67DA"/>
				<stop  offset="0.4051" style="stop-color:#727AE2"/>
				<stop  offset="0.6924" style="stop-color:#9297EE"/>
				<stop  offset="1" style="stop-color:#BCBEFF"/>
			</linearGradient>
			<path class="st65" d="M367.9,24.1c3-1.7,5.4-0.3,5.4,3.1s-2.4,7.6-5.4,9.4c-3,1.7-5.4,0.3-5.4-3.1C362.6,30,365,25.8,367.9,24.1z
				"/>
			<path class="st14" d="M390.1,51.8l6.7,3.8c-1-0.6-1.6-1.8-1.6-3.5c0-3.4,2.4-7.6,5.4-9.4c1.4-0.8,2.8-0.9,3.7-0.4l28.3,16.3
				L425,71.9L341.6,24c-3.7-2.1-4.9-6.8-2.8-10.4c2.1-3.7,6.8-4.9,10.4-2.8l22.6,13c-1-0.6-2.4-0.6-3.9,0.3c-3,1.7-5.4,5.9-5.4,9.4
				c0,1.7,0.6,2.9,1.6,3.5l0,0l0,0l0,0l6.7,3.8c-1-0.6-1.6-1.8-1.6-3.5c0-3.4,2.4-7.6,5.4-9.4c1.4-0.8,2.8-0.9,3.7-0.4l6.6,3.8
				c-1-0.6-2.4-0.6-3.9,0.3c-3,1.7-5.4,5.9-5.4,9.4c0,1.7,0.6,2.9,1.6,3.5l0,0l0,0l0,0l6.7,3.8c-1-0.6-1.6-1.8-1.6-3.5
				c0-3.4,2.4-7.6,5.4-9.4c1.4-0.8,2.8-0.9,3.7-0.4l6.3,3.6c-1-0.6-2.4-0.6-3.9,0.3c-3,1.7-5.4,5.9-5.4,9.4
				C388.5,50.1,389.1,51.3,390.1,51.8L390.1,51.8L390.1,51.8L390.1,51.8z"/>
			<path class="st3" d="M381.4,31.8c-3,1.7-5.4,5.9-5.4,9.4c0,1.6,0.5,2.8,1.4,3.4c-1.1-0.5-1.8-1.8-1.8-3.6c0-3.4,2.4-7.6,5.4-9.4
				c1.6-0.9,3-0.9,4-0.3C384,30.8,382.8,31,381.4,31.8z"/>
			<path class="st3" d="M368.3,24.3c-3,1.7-5.4,5.9-5.4,9.4c0,1.6,0.5,2.8,1.4,3.4c-1.1-0.5-1.8-1.8-1.8-3.6c0-3.4,2.4-7.6,5.4-9.4
				c1.6-0.9,3-0.9,4-0.3C371,23.3,369.7,23.4,368.3,24.3z"/>
			
				<linearGradient id="SVGID_52_" gradientUnits="userSpaceOnUse" x1="-2913.9685" y1="8684.0107" x2="-2898.6995" y2="8684.0107" gradientTransform="matrix(0.4984 -0.867 0.867 0.4984 -5685.1616 -6801.8447)">
				<stop  offset="0" style="stop-color:#42E8E0"/>
				<stop  offset="0.1507" style="stop-color:#43E3E0"/>
				<stop  offset="0.3285" style="stop-color:#45D5DF"/>
				<stop  offset="0.5199" style="stop-color:#49BDDD"/>
				<stop  offset="0.7209" style="stop-color:#4E9CDB"/>
				<stop  offset="0.9274" style="stop-color:#5472D8"/>
				<stop  offset="1" style="stop-color:#5761D7"/>
			</linearGradient>
			<path class="st66" d="M400.6,42.8c-3,1.7-5.4,5.9-5.4,9.4c0,1.7,0.6,2.9,1.6,3.5l-6.7-3.8l0,0l0,0l0,0c-1-0.6-1.6-1.8-1.6-3.5
				c0-3.4,2.4-7.6,5.4-9.4c1.5-0.9,2.9-0.9,3.9-0.3l6.5,3.7C403.3,41.9,402,42,400.6,42.8z"/>
			
				<linearGradient id="SVGID_53_" gradientUnits="userSpaceOnUse" x1="-2913.9685" y1="8669.1396" x2="-2898.6992" y2="8669.1396" gradientTransform="matrix(0.4984 -0.867 0.867 0.4984 -5685.1616 -6801.8447)">
				<stop  offset="0" style="stop-color:#42E8E0"/>
				<stop  offset="0.1507" style="stop-color:#43E3E0"/>
				<stop  offset="0.3285" style="stop-color:#45D5DF"/>
				<stop  offset="0.5199" style="stop-color:#49BDDD"/>
				<stop  offset="0.7209" style="stop-color:#4E9CDB"/>
				<stop  offset="0.9274" style="stop-color:#5472D8"/>
				<stop  offset="1" style="stop-color:#5761D7"/>
			</linearGradient>
			<path class="st67" d="M387.7,35.4c-3,1.7-5.4,5.9-5.4,9.4c0,1.7,0.6,2.9,1.6,3.5l-6.7-3.8l0,0l0,0l0,0c-1-0.6-1.6-1.8-1.6-3.5
				c0-3.4,2.4-7.6,5.4-9.4c1.5-0.9,2.9-0.9,3.9-0.3l6.5,3.7C390.5,34.5,389.2,34.6,387.7,35.4z"/>
			
				<linearGradient id="SVGID_54_" gradientUnits="userSpaceOnUse" x1="-2913.968" y1="8654.0449" x2="-2898.6992" y2="8654.0449" gradientTransform="matrix(0.4984 -0.867 0.867 0.4984 -5685.1616 -6801.8447)">
				<stop  offset="0" style="stop-color:#42E8E0"/>
				<stop  offset="0.1507" style="stop-color:#43E3E0"/>
				<stop  offset="0.3285" style="stop-color:#45D5DF"/>
				<stop  offset="0.5199" style="stop-color:#49BDDD"/>
				<stop  offset="0.7209" style="stop-color:#4E9CDB"/>
				<stop  offset="0.9274" style="stop-color:#5472D8"/>
				<stop  offset="1" style="stop-color:#5761D7"/>
			</linearGradient>
			<path class="st68" d="M374.6,27.9c-3,1.7-5.4,5.9-5.4,9.4c0,1.7,0.6,2.9,1.6,3.5l-6.7-3.8l0,0l0,0l0,0c-1-0.6-1.6-1.8-1.6-3.5
				c0-3.4,2.4-7.6,5.4-9.4c1.5-0.9,2.9-0.9,3.9-0.3l6.5,3.7C377.4,27,376.1,27.1,374.6,27.9z"/>
		</g>
		<g>
			
				<linearGradient id="SVGID_55_" gradientUnits="userSpaceOnUse" x1="-2961.1589" y1="8749.249" x2="-2862.4824" y2="8806.4541" gradientTransform="matrix(0.4984 -0.867 0.867 0.4984 -5685.1616 -6801.8447)">
				<stop  offset="0" style="stop-color:#2692C7"/>
				<stop  offset="0.3076" style="stop-color:#2692C7"/>
				<stop  offset="0.5949" style="stop-color:#0063A9"/>
				<stop  offset="0.8355" style="stop-color:#0063A9"/>
				<stop  offset="1" style="stop-color:#16365E"/>
			</linearGradient>
			<path class="st69" d="M425.3,95.1c0,0.4,0,0.8,0,1.2l16.5,13.8l26.7,9.9l18.8-4.2l18-5.1l18.3-14.1l0.5-0.4
				c0.1-1.1,0-2.3-0.2-3.4c3.2-4.3,6.5-8.6,9.7-12.9c1.5,1.9,2.7,3.8,3.6,5.8l2.1-1.7v11c0,0.1,0,0.3,0,0.4v0.4l0,0
				c-0.3,9.3-6.5,18.6-18.8,25.8c-25.2,14.6-66.1,14.7-91.4,0.2c-12.5-7.2-18.8-16.6-19-26.1l0,0v-0.1c0-0.1,0-0.2,0-0.3V83.6
				l2.3,1.9c0.5-1.1,1.2-2.3,1.9-3.4C417.2,87,420.1,93.1,425.3,95.1z"/>
			
				<linearGradient id="SVGID_56_" gradientUnits="userSpaceOnUse" x1="-2852.9961" y1="8800.0283" x2="-2941.8367" y2="8734.9834" gradientTransform="matrix(0.4984 -0.867 0.867 0.4984 -5685.1616 -6801.8447)">
				<stop  offset="0" style="stop-color:#73B9DB"/>
				<stop  offset="0.2938" style="stop-color:#89C4E0"/>
				<stop  offset="0.6399" style="stop-color:#C4E1F0"/>
				<stop  offset="1" style="stop-color:#F7FBFD"/>
			</linearGradient>
			<path class="st70" d="M519.3,68.3c0.3,0.2,0.7,0.4,1,0.6c5.7,3.3,10.1,7.1,13.2,11.1c-3.2,4.3-6.5,8.6-9.7,12.9
				c-1-6.5-5.7-12.8-14.3-17.7c-19.3-11.1-50.6-11-69.8,0.1c-9.5,5.5-14.3,12.7-14.4,19.9c-5.2-2.1-8.1-8.1-11-13
				c2.3-3.5,5.6-6.9,9.9-10l-2.2,0.5c0,0,15.2-13.2,15.7-13.3c0.6-0.1,30.9-8.2,30.9-8.2l34.2,3L519.3,68.3z"/>
			
				<linearGradient id="SVGID_57_" gradientUnits="userSpaceOnUse" x1="-2938.1606" y1="8772.6729" x2="-2868.4019" y2="8772.6729" gradientTransform="matrix(0.4984 -0.867 0.867 0.4984 -5685.1616 -6801.8447)">
				<stop  offset="0" style="stop-color:#42E8E0"/>
				<stop  offset="0.1507" style="stop-color:#43E3E0"/>
				<stop  offset="0.3285" style="stop-color:#45D5DF"/>
				<stop  offset="0.5199" style="stop-color:#49BDDD"/>
				<stop  offset="0.7209" style="stop-color:#4E9CDB"/>
				<stop  offset="0.9274" style="stop-color:#5472D8"/>
				<stop  offset="1" style="stop-color:#5761D7"/>
			</linearGradient>
			<path class="st71" d="M508.6,67.4c19.3,11.1,19.3,29.1,0.1,40.3c-19.3,11.2-50.5,11.2-69.8,0.1s-19.3-29.1-0.1-40.3
				C458.1,56.4,489.3,56.3,508.6,67.4z"/>
			
				<linearGradient id="SVGID_58_" gradientUnits="userSpaceOnUse" x1="-2941.1948" y1="8774.417" x2="-2871.436" y2="8774.417" gradientTransform="matrix(0.4984 -0.867 0.867 0.4984 -5685.1616 -6801.8447)">
				<stop  offset="0" style="stop-color:#42E8E0"/>
				<stop  offset="0.1507" style="stop-color:#43E3E0"/>
				<stop  offset="0.3285" style="stop-color:#45D5DF"/>
				<stop  offset="0.5199" style="stop-color:#49BDDD"/>
				<stop  offset="0.7209" style="stop-color:#4E9CDB"/>
				<stop  offset="0.9274" style="stop-color:#5472D8"/>
				<stop  offset="1" style="stop-color:#5761D7"/>
			</linearGradient>
			<path class="st72" d="M508.6,70.9c19.3,11.1,19.3,29.1,0.1,40.3c-19.3,11.2-50.5,11.2-69.8,0.1s-19.3-29.1-0.1-40.3
				S489.3,59.8,508.6,70.9z"/>
			<path class="st6" d="M520.3,57.3c-25.3-14.5-66.2-14.4-91.4,0.2c-25.2,14.6-25.2,38.2,0.1,52.7c25.3,14.5,66.2,14.4,91.4-0.2
				C545.6,95.4,545.6,71.8,520.3,57.3z M509.5,63.5c19.3,11.1,19.3,29.1,0.1,40.3c-19.3,11.2-50.5,11.2-69.8,0.1
				s-19.3-29.1-0.1-40.3S490.2,52.4,509.5,63.5z"/>
			<path class="st14" d="M520.3,57.3c-25.3-14.5-66.2-14.4-91.4,0.2c-25.2,14.6-25.2,38.2,0.1,52.7c25.3,14.5,66.2,14.4,91.4-0.2
				C545.6,95.4,545.6,71.8,520.3,57.3z M509.5,63.5c19.3,11.1,19.3,29.1,0.1,40.3c-19.3,11.2-50.5,11.2-69.8,0.1
				s-19.3-29.1-0.1-40.3S490.2,52.4,509.5,63.5z"/>
			<g>
				<path class="st3" d="M428.7,109.2c25.3,14.5,66.2,14.4,91.4-0.2c15.5-9,21.4-21.4,17.8-33c4.3,11.9-1.5,24.7-17.5,34
					c-25.2,14.6-66.1,14.7-91.4,0.2c-9.7-5.6-15.7-12.5-17.9-19.8C413.6,97.3,419.4,103.9,428.7,109.2z"/>
				<path class="st3" d="M439.4,62.7c19.3-11.2,50.5-11.2,69.8-0.1c7.5,4.3,12,9.6,13.7,15.2c-1.9-5.2-6.4-10.2-13.4-14.2
					c-19.3-11.1-50.6-11-69.8,0.1C427.9,70.5,423.4,80,426,88.8C422.7,79.6,427.2,69.8,439.4,62.7z"/>
			</g>
		</g>
	</g>
	
		<rect x="395.4" y="407" transform="matrix(0.4905 -0.8714 0.8714 0.4905 -170.3991 562.3373)" class="st14" width="0.7" height="39.8"/>
	<path class="st14" d="M434.4,496.6c-1.6,0-3.3-0.4-4.7-1.3l-55.3-31.9c-0.9-0.5-1.4-1.4-1.4-2.4s0.5-1.9,1.4-2.4l81.8-47.2
		c2.9-1.7,6.5-1.7,9.4,0l55.3,31.9c0.9,0.5,1.4,1.4,1.4,2.4s-0.5,1.9-1.4,2.4l-81.8,47.2C437.7,496.2,436.1,496.6,434.4,496.6z
		 M460.9,410.8c-1.5,0-3,0.4-4.4,1.2l-81.8,47.2c-0.7,0.4-1.1,1.1-1.1,1.8c0,0.8,0.4,1.4,1.1,1.8l55.3,31.9c2.7,1.6,6.1,1.6,8.8,0
		l81.8-47.2c0.7-0.4,1.1-1.1,1.1-1.8c0-0.8-0.4-1.4-1.1-1.8L465.3,412C464,411.2,462.4,410.8,460.9,410.8z"/>
	<g>
		<g>
			<polygon class="st14" points="447.7,442.9 439,437.9 441.2,436.7 449.8,441.7 			"/>
			<polygon class="st73" points="455.1,447.2 450.8,444.7 452.9,443.4 457.3,445.9 			"/>
			<polygon class="st73" points="442.6,445.8 434,440.8 436.1,439.6 444.8,444.6 			"/>
			<polygon class="st73" points="450,450.1 445.7,447.6 447.9,446.4 452.2,448.9 			"/>
			<polygon class="st14" points="437.6,448.7 428.9,443.7 431.1,442.5 439.7,447.5 			"/>
			<polygon class="st14" points="445,453 440.6,450.5 442.8,449.3 447.1,451.8 			"/>
			<polygon class="st14" points="432.5,451.7 423.9,446.7 426,445.4 434.7,450.4 			"/>
			<polygon class="st14" points="439.9,455.9 435.6,453.4 437.7,452.2 442.1,454.7 			"/>
			<polygon class="st14" points="427.5,454.6 418.8,449.6 421,448.3 429.6,453.3 			"/>
			<polygon class="st14" points="434.9,458.9 430.5,456.4 432.7,455.1 437,457.6 			"/>
			<polygon class="st14" points="422.4,457.5 413.7,452.5 415.9,451.2 424.6,456.3 			"/>
			<polygon class="st14" points="429.8,461.8 425.5,459.3 427.6,458 432,460.5 			"/>
			<polygon class="st14" points="417.4,460.4 408.7,455.4 410.8,454.2 419.5,459.2 			"/>
			<polygon class="st73" points="424.8,464.7 420.4,462.2 422.6,460.9 426.9,463.4 			"/>
			<polygon class="st14" points="412.3,463.3 403.6,458.3 405.8,457.1 414.5,462.1 			"/>
			<polygon class="st73" points="419.7,467.6 415.4,465.1 417.5,463.9 421.9,466.4 			"/>
		</g>
		<g>
			<polygon class="st14" points="467,454.1 458.3,449.1 460.4,447.9 469.1,452.9 			"/>
			<polygon class="st14" points="474.4,458.4 470,455.9 472.2,454.7 476.5,457.2 			"/>
			<polygon class="st14" points="461.9,457.1 453.2,452.1 455.4,450.8 464.1,455.8 			"/>
			<polygon class="st14" points="469.3,461.3 465,458.8 467.1,457.6 471.5,460.1 			"/>
			<polygon class="st14" points="456.9,460 448.2,455 450.3,453.7 459,458.7 			"/>
			<polygon class="st14" points="464.3,464.3 459.9,461.8 462.1,460.5 466.4,463 			"/>
			<polygon class="st14" points="462.8,434.2 454.1,429.2 456.3,427.9 464.9,433 			"/>
			<polygon class="st14" points="470.2,438.5 465.8,436 468,434.7 472.3,437.2 			"/>
			<polygon class="st14" points="457.7,437.1 449,432.1 451.2,430.9 459.9,435.9 			"/>
			<polygon class="st14" points="465.1,441.4 460.8,438.9 462.9,437.6 467.3,440.2 			"/>
			<polygon class="st14" points="452.7,440 444,435 446.1,433.8 454.8,438.8 			"/>
			<polygon class="st14" points="460.1,444.3 455.7,441.8 457.9,440.6 462.2,443.1 			"/>
			<polygon class="st14" points="482,445.4 473.4,440.4 475.5,439.2 484.2,444.2 			"/>
			<polygon class="st14" points="489.4,449.7 485.1,447.2 487.3,446 491.6,448.5 			"/>
			<polygon class="st73" points="477,448.4 468.3,443.3 470.5,442.1 479.1,447.1 			"/>
			<polygon class="st14" points="484.4,452.6 480.1,450.1 482.2,448.9 486.5,451.4 			"/>
			<polygon class="st14" points="471.9,451.3 463.3,446.3 465.4,445 474.1,450 			"/>
			<polygon class="st14" points="479.3,455.5 475,453 477.2,451.8 481.5,454.3 			"/>
			<polygon class="st14" points="451.8,462.9 443.1,457.9 445.3,456.6 454,461.7 			"/>
			<polygon class="st14" points="459.2,467.2 454.9,464.7 457,463.4 461.4,465.9 			"/>
			<polygon class="st73" points="446.7,465.8 438.1,460.8 440.2,459.6 448.9,464.6 			"/>
			<polygon class="st14" points="454.1,470.1 449.8,467.6 452,466.3 456.3,468.8 			"/>
			<polygon class="st14" points="441.7,468.7 433,463.7 435.2,462.5 443.8,467.5 			"/>
			<polygon class="st14" points="449.1,473 444.8,470.5 446.9,469.3 451.2,471.8 			"/>
			<polygon class="st14" points="436.6,471.7 428,466.6 430.1,465.4 438.8,470.4 			"/>
			<polygon class="st14" points="444,475.9 439.7,473.4 441.9,472.2 446.2,474.7 			"/>
			<polygon class="st14" points="431.7,474.5 423,469.5 425.2,468.3 433.8,473.3 			"/>
			<polygon class="st14" points="439.1,478.8 434.7,476.3 436.9,475 441.2,477.5 			"/>
		</g>
	</g>
	<g>
		<path class="st14" d="M490.3,426.1l-0.3-0.5l29.8-17.8c1.2-0.7,1.8-1.9,1.8-3.3c0-1.3-0.7-2.6-1.9-3.2L482.2,380
			c-1.4-0.8-2.2-2.2-2.2-3.7c0-1.6,0.8-3,2.2-3.7l90.6-52.2c1.1-0.6,1.7-1.7,1.7-3c0-1.2-0.6-2.3-1.7-3l-15.5-9.1
			c-4.8-2.8-7.8-8-7.8-13.6V157.8c0-5.4-2.9-10.5-7.6-13.2l-15.4-9l0.3-0.5l15.4,9c4.8,2.8,7.8,8.1,7.8,13.6v133.8
			c0,5.4,2.9,10.4,7.5,13.1l15.5,9.1c1.2,0.7,2,2,2,3.4s-0.7,2.7-2,3.4L482.4,373c-1.2,0.7-1.9,1.9-1.9,3.3s0.7,2.6,1.9,3.3
			l37.6,21.5c1.3,0.8,2.2,2.1,2.2,3.7c0,1.5-0.8,2.9-2.1,3.7L490.3,426.1z"/>
	</g>
</g>
<rect x="-1341.7" y="-112.1" class="st14" width="18.4" height="18.4"/>
</svg>
